<svg width="50" height="50" viewBox="0 0 50 50" fill="none" xmlns="http://www.w3.org/2000/svg">
<path fill-rule="evenodd" clip-rule="evenodd" d="M25 46.875C30.8016 46.875 36.3656 44.5703 40.468 40.468C44.5703 36.3656 46.875 30.8016 46.875 25C46.875 19.1984 44.5703 13.6344 40.468 9.53204C36.3656 5.42968 30.8016 3.125 25 3.125C19.1984 3.125 13.6344 5.42968 9.53204 9.53204C5.42968 13.6344 3.125 19.1984 3.125 25C3.125 30.8016 5.42968 36.3656 9.53204 40.468C13.6344 44.5703 19.1984 46.875 25 46.875V46.875ZM25 50C31.6304 50 37.9893 47.3661 42.6777 42.6777C47.3661 37.9893 50 31.6304 50 25C50 18.3696 47.3661 12.0107 42.6777 7.32233C37.9893 2.63392 31.6304 0 25 0C18.3696 0 12.0107 2.63392 7.32233 7.32233C2.63392 12.0107 0 18.3696 0 25C0 31.6304 2.63392 37.9893 7.32233 42.6777C12.0107 47.3661 18.3696 50 25 50V50Z" fill="white"/>
<path fill-rule="evenodd" clip-rule="evenodd" d="M23.8965 35.4818C23.751 35.3366 23.6356 35.1642 23.5568 34.9744C23.478 34.7845 23.4375 34.581 23.4375 34.3755C23.4375 34.17 23.478 33.9665 23.5568 33.7767C23.6356 33.5868 23.751 33.4144 23.8965 33.2693L32.1684 25.0005L23.8965 16.7318C23.7513 16.5865 23.636 16.414 23.5574 16.2242C23.4788 16.0344 23.4383 15.831 23.4383 15.6255C23.4383 15.4201 23.4788 15.2166 23.5574 15.0268C23.636 14.837 23.7513 14.6645 23.8965 14.5193C24.0418 14.374 24.2143 14.2587 24.4041 14.1801C24.5939 14.1015 24.7973 14.061 25.0028 14.061C25.2082 14.061 25.4117 14.1015 25.6015 14.1801C25.7913 14.2587 25.9638 14.374 26.109 14.5193L35.484 23.8943C35.6296 24.0394 35.745 24.2118 35.8238 24.4017C35.9025 24.5915 35.9431 24.795 35.9431 25.0005C35.9431 25.206 35.9025 25.4095 35.8238 25.5994C35.745 25.7892 35.6296 25.9616 35.484 26.1068L26.109 35.4818C25.9639 35.6273 25.7915 35.7427 25.6016 35.8215C25.4118 35.9003 25.2083 35.9408 25.0028 35.9408C24.7973 35.9408 24.5938 35.9003 24.4039 35.8215C24.2141 35.7427 24.0417 35.6273 23.8965 35.4818V35.4818Z" fill="white"/>
<path fill-rule="evenodd" clip-rule="evenodd" d="M14.0625 25C14.0625 24.5856 14.2271 24.1882 14.5201 23.8951C14.8132 23.6021 15.2106 23.4375 15.625 23.4375H31.25C31.6644 23.4375 32.0618 23.6021 32.3549 23.8951C32.6479 24.1882 32.8125 24.5856 32.8125 25C32.8125 25.4144 32.6479 25.8118 32.3549 26.1049C32.0618 26.3979 31.6644 26.5625 31.25 26.5625H15.625C15.2106 26.5625 14.8132 26.3979 14.5201 26.1049C14.2271 25.8118 14.0625 25.4144 14.0625 25Z" fill="white"/>
</svg>
