<svg width="457" height="148" viewBox="0 0 457 148" fill="none" xmlns="http://www.w3.org/2000/svg">
<path fill-rule="evenodd" clip-rule="evenodd" d="M314.794 68.0104C314.959 67.6338 315.398 67.4626 315.774 67.628C316.137 67.7876 316.309 68.202 316.173 68.5691L316.156 68.6097L313.679 74.2563C313.514 74.6329 313.075 74.8041 312.699 74.6387C312.336 74.4791 312.164 74.0647 312.3 73.6976L312.317 73.657L314.794 68.0104Z" fill="#FA742E"/>
<path fill-rule="evenodd" clip-rule="evenodd" d="M312.706 80.9868C313.113 81.0459 313.395 81.4239 313.336 81.8311L309.527 108.152C309.468 108.559 309.091 108.841 308.684 108.782C308.278 108.723 307.996 108.345 308.055 107.938L311.863 81.617C311.922 81.2098 312.3 80.9277 312.706 80.9868Z" fill="#FA742E"/>
<path fill-rule="evenodd" clip-rule="evenodd" d="M327.248 85.1016C327.638 85.2313 327.849 85.6529 327.719 86.0434L318.899 112.66L317.479 116.982L317.225 117.764C317.189 117.875 317.154 117.985 317.118 118.094L317.01 118.417C316.991 118.471 316.973 118.524 316.955 118.576L316.846 118.889L316.737 119.195C316.719 119.246 316.7 119.296 316.682 119.346L316.571 119.642C316.553 119.691 316.534 119.739 316.516 119.787L316.404 120.074C316.385 120.121 316.366 120.168 316.347 120.214L316.234 120.49C316.006 121.036 315.771 121.543 315.525 122.013L315.402 122.245C314.448 123.997 313.337 125.202 311.881 125.95C311.515 126.138 311.067 125.994 310.879 125.628C310.692 125.262 310.836 124.813 311.201 124.625C312.71 123.849 313.834 122.346 314.844 119.951L314.954 119.686L315.063 119.414C315.081 119.368 315.099 119.322 315.117 119.275L315.225 118.992L315.332 118.703C315.368 118.605 315.403 118.506 315.439 118.405L315.545 118.101C315.563 118.049 315.58 117.998 315.598 117.946L315.704 117.63L316.418 115.438L318.347 109.587L326.307 85.5738C326.437 85.1834 326.858 84.972 327.248 85.1016Z" fill="#FA742E"/>
<path fill-rule="evenodd" clip-rule="evenodd" d="M298.598 39.5616C301.494 30.5617 311.126 25.6165 320.113 28.516C329.011 31.3865 333.94 40.8695 331.222 49.8107L331.137 50.0815L323.716 71.1283C323.587 71.4946 323.2 71.6977 322.829 71.6016L322.786 71.5892L315.189 69.1359C314.811 69.0141 314.598 68.619 314.697 68.2397L314.709 68.1976L316.764 61.835L316.56 61.8573C316.179 61.8956 315.797 61.9208 315.415 61.9328L315.127 61.9394L314.888 61.9411C313.102 61.9388 311.327 61.6577 309.627 61.1081C300.73 58.2371 295.801 48.7538 298.513 39.8318L298.598 39.5616ZM319.658 29.9341C311.453 27.2869 302.659 31.8018 300.015 40.0186C297.372 48.2353 301.88 57.0424 310.085 59.6902C311.638 60.1924 313.259 60.4491 314.89 60.4512C315.835 60.4513 316.777 60.3633 317.706 60.1884C318.247 60.0865 318.701 60.586 318.563 61.1095L318.551 61.1498L316.355 67.9467L322.555 69.9489L329.729 49.605C332.319 41.5517 328.04 32.9316 320.144 30.0994L319.903 30.0153L319.658 29.9341ZM314.865 37.1271L314.986 37.1283C317.392 37.1657 319.644 38.332 321.066 40.2825C322.459 42.195 322.893 44.6416 322.247 46.919L322.212 47.0387L322.174 47.1597C320.898 51.1159 316.72 53.3231 312.759 52.1832L312.683 52.1606L312.639 52.1564C312.61 52.1525 312.58 52.1469 312.551 52.1393L312.507 52.1266C308.911 50.9649 306.695 47.3549 307.282 43.6171C307.864 39.9168 311.023 37.1814 314.752 37.1282L314.865 37.1271ZM314.866 38.6172C311.82 38.6163 309.226 40.8357 308.752 43.8489C308.289 46.7986 309.991 49.6496 312.783 50.6469L312.817 50.659L312.842 50.6615C312.872 50.6654 312.901 50.6711 312.93 50.6786L312.974 50.6913C316.191 51.7313 319.639 49.9912 320.724 46.8063L320.756 46.7094L320.789 46.6022C321.349 44.7441 321.007 42.7295 319.864 41.1607C318.699 39.5621 316.842 38.617 314.866 38.6172Z" fill="#FA742E"/>
<path fill-rule="evenodd" clip-rule="evenodd" d="M339.629 38.8771C345.78 36.4594 352.771 37.8072 357.585 42.3389C362.352 46.8252 364.14 53.6369 362.206 59.8856L362.146 60.0748L362.097 60.2237C360.466 65.1357 356.702 69.0458 351.857 70.8575C347.166 72.6122 341.954 72.215 337.592 69.7948L337.449 69.7143L337.335 69.6488L327.862 73.0662C327.742 73.1096 327.613 73.121 327.488 73.1001L327.434 73.0892L327.382 73.0743L323.707 71.8874C323.33 71.7656 323.117 71.371 323.215 70.9919L323.227 70.9499L328.826 53.5531L328.834 53.4487C329.344 47.0609 333.374 41.4974 339.266 39.0246L339.445 38.9506L339.629 38.8771ZM356.565 43.4245C352.17 39.2872 345.787 38.0567 340.172 40.264C334.557 42.4713 330.714 47.7213 330.303 53.7482C330.3 53.7884 330.294 53.8284 330.285 53.8676L330.268 53.9259L324.87 70.6979L327.596 71.5782L337.159 68.1286C337.337 68.0641 337.532 68.0709 337.704 68.145L337.751 68.1669L337.796 68.1921C341.878 70.6658 346.866 71.1336 351.336 69.4618C355.711 67.8254 359.122 64.3138 360.635 59.8995L360.683 59.7568L360.73 59.6143C362.582 53.8652 360.961 47.5618 356.565 43.4245ZM348.238 47.5062C352.263 48.8176 354.472 53.1413 353.179 57.1778C352.229 60.145 349.585 62.2457 346.484 62.4985C343.382 62.7514 340.435 61.1067 339.017 58.3325C337.6 55.5583 337.992 52.202 340.012 49.831C342.031 47.46 345.279 46.5422 348.238 47.5062ZM341.144 50.7979C339.515 52.71 339.199 55.4167 340.342 57.6539C341.485 59.8912 343.862 61.2176 346.363 61.0136C348.864 60.8097 350.996 59.1156 351.763 56.7227C352.806 53.4675 351.024 49.9806 347.778 48.923C345.391 48.1456 342.772 48.8858 341.144 50.7979Z" fill="#FA742E"/>
<path fill-rule="evenodd" clip-rule="evenodd" d="M327.366 83.8904C327.728 84.0844 327.865 84.5358 327.671 84.8986L318.76 101.606L310.995 116.202C310.802 116.565 310.351 116.703 309.989 116.51C309.626 116.317 309.488 115.865 309.681 115.502L314.472 106.492L321.419 93.4537L326.359 84.1961C326.553 83.8333 327.004 83.6964 327.366 83.8904Z" fill="#FA742E"/>
<path fill-rule="evenodd" clip-rule="evenodd" d="M311.079 81.1848C311.206 80.7933 311.625 80.5783 312.016 80.7047C312.393 80.8265 312.606 81.2212 312.507 81.6003L312.495 81.6424L307.784 96.2629C307.658 96.6545 307.239 96.8694 306.848 96.7431C306.471 96.6213 306.258 96.2265 306.356 95.8474L306.368 95.8054L311.079 81.1848Z" fill="#FA742E"/>
<path fill-rule="evenodd" clip-rule="evenodd" d="M323.887 70.3364C324.053 70.0002 324.441 69.8423 324.792 69.9613L324.834 69.9769L328.377 71.4196C328.757 71.5745 328.941 72.0091 328.786 72.3902C328.637 72.7577 328.228 72.9413 327.858 72.815L327.817 72.7997L324.831 71.584L324.808 71.6124C323.967 72.641 322.265 73.9268 320.485 74.7671L320.371 74.8201C319.998 74.992 319.556 74.8283 319.385 74.4545C319.213 74.0807 319.376 73.6383 319.75 73.4665C319.921 73.3876 320.092 73.3037 320.261 73.2159L320.463 73.1086L320.664 72.9979C320.73 72.9604 320.796 72.9225 320.862 72.8841L321.058 72.7677L321.25 72.6489C321.282 72.6289 321.314 72.6089 321.345 72.5888L321.532 72.4673C321.656 72.3858 321.777 72.3034 321.895 72.2207L322.069 72.0963C322.326 71.9094 322.566 71.7219 322.782 71.5394L322.923 71.4186C322.969 71.3786 323.013 71.339 323.057 71.2997L323.183 71.183C323.203 71.1638 323.223 71.1446 323.242 71.1256L323.356 71.0131C323.593 70.7725 323.769 70.5546 323.866 70.3767L323.887 70.3364Z" fill="#FA742E"/>
<path fill-rule="evenodd" clip-rule="evenodd" d="M315.562 80.644C315.971 80.6082 316.332 80.9114 316.368 81.3212C316.484 82.6519 317.521 83.7162 318.846 83.8653C320.172 84.0144 321.419 83.2071 321.827 81.9347C321.865 81.8153 321.896 81.6934 321.917 81.57L321.932 81.4771C321.99 81.0698 322.367 80.7867 322.774 80.8448C323.18 80.9029 323.463 81.2801 323.405 81.6874C323.371 81.9265 323.317 82.1621 323.243 82.3912C322.618 84.3382 320.709 85.5742 318.68 85.3459C316.651 85.1175 315.063 83.4882 314.886 81.4509C314.85 81.0411 315.153 80.6798 315.562 80.644Z" fill="#FA742E"/>
<path fill-rule="evenodd" clip-rule="evenodd" d="M328.818 61.8692L328.861 61.8712L337.463 62.5069C337.859 62.5361 338.159 62.8699 338.152 63.2619L338.15 63.3057L337.322 74.3208C337.291 74.7311 336.934 75.0386 336.524 75.0077C336.129 74.9779 335.83 74.6443 335.836 74.2527L335.838 74.2089L336.61 63.9376L329.493 63.4114L328.673 74.3208C328.643 74.7164 328.31 75.0165 327.919 75.0097L327.876 75.0077C327.481 74.9779 327.181 74.6444 327.188 74.2527L327.19 74.209L328.065 62.5582C328.095 62.163 328.427 61.863 328.818 61.8692Z" fill="#289976"/>
<path fill-rule="evenodd" clip-rule="evenodd" d="M327.454 80.636C327.849 80.6658 328.149 80.9994 328.142 81.391L328.14 81.4348L324.552 129.17C324.521 129.58 324.164 129.888 323.754 129.857C323.359 129.827 323.06 129.494 323.067 129.102L323.069 129.058L326.656 81.323C326.686 80.9273 327.019 80.6273 327.41 80.634L327.454 80.636Z" fill="#289976"/>
<path fill-rule="evenodd" clip-rule="evenodd" d="M335.916 80.8475C336.311 80.8772 336.611 81.2108 336.604 81.6024L336.602 81.6461L333.044 129.036C333.013 129.446 332.656 129.754 332.247 129.723C331.852 129.693 331.552 129.36 331.559 128.968L331.561 128.925L335.119 81.5344C335.149 81.1388 335.482 80.8387 335.873 80.8454L335.916 80.8475Z" fill="#289976"/>
<path fill-rule="evenodd" clip-rule="evenodd" d="M327.609 66.3934L337.862 67.1657L340.059 37.937C340.701 29.3727 339.268 27.5799 335.492 27.2944C331.716 27.0088 330.337 30.0879 329.692 38.6546L327.609 66.3934Z" fill="#289976"/>
<path fill-rule="evenodd" clip-rule="evenodd" d="M334.947 33.4972L334.991 33.4992L341.346 33.9784C342.898 34.0942 343.833 35.1435 344.133 37.2535L344.157 37.4369C344.161 37.468 344.164 37.4992 344.168 37.5306L344.187 37.7219C344.211 37.9804 344.227 38.253 344.234 38.5396L344.238 38.7573C344.239 38.8307 344.239 38.9051 344.239 38.9803L344.236 39.2086C344.236 39.2471 344.235 39.2859 344.234 39.3248L344.227 39.5612L344.216 39.803C344.214 39.8437 344.212 39.8847 344.21 39.9259L344.195 40.1758L344.177 40.4312L342.555 62.0342C342.525 62.4445 342.168 62.752 341.758 62.7212C341.363 62.6915 341.063 62.3579 341.07 61.9663L341.072 61.9225L342.702 40.1999L342.718 39.9678L342.731 39.7426L342.742 39.5243L342.75 39.3127L342.756 39.1078C342.756 39.0742 342.757 39.0409 342.757 39.0079L342.759 38.8128L342.759 38.6243L342.756 38.4421L342.751 38.2663C342.749 38.2375 342.748 38.209 342.747 38.1807L342.738 38.0142L342.727 37.8538L342.713 37.6994C342.711 37.6742 342.708 37.6492 342.706 37.6245L342.688 37.479L342.669 37.3394L342.647 37.2055C342.644 37.1836 342.64 37.162 342.636 37.1406L342.611 37.0152C342.593 36.9335 342.575 36.8554 342.554 36.7809L342.523 36.6719C342.517 36.6542 342.512 36.6366 342.506 36.6194L342.471 36.5183L342.434 36.4223C342.415 36.3756 342.395 36.3309 342.375 36.288L342.332 36.2047C342.08 35.733 341.721 35.5113 341.273 35.4674L334.879 34.9849C334.47 34.954 334.163 34.5964 334.194 34.1861C334.223 33.7905 334.556 33.4904 334.947 33.4972Z" fill="#289976"/>
<ellipse cx="341.812" cy="61.971" rx="1.61664" ry="1.61898" fill="#289976"/>
<path fill-rule="evenodd" clip-rule="evenodd" d="M289.861 40.2421C290.69 40.12 291.509 40.5062 291.94 41.2096L299.563 54.2514C301.29 57.1964 302.451 60.4387 302.986 63.8121L303.022 64.0477L304.51 74.1564C304.57 74.5634 304.289 74.942 303.882 75.002C303.49 75.0598 303.125 74.8003 303.046 74.4168L303.038 74.3736L301.551 64.2668C301.073 61.0767 300.003 58.005 298.398 55.209L298.279 55.0049L290.687 42.0143C290.565 41.7984 290.323 41.68 290.077 41.7161C289.847 41.75 289.658 41.9143 289.589 42.1416L289.578 42.1849L286.089 56.8178C285.341 59.9552 285.185 63.204 285.628 66.3972L285.662 66.6366L286.781 74.1653C286.841 74.5723 286.561 74.9512 286.154 75.0118C285.763 75.0701 285.397 74.8111 285.317 74.4277L285.309 74.3845L284.191 66.8555C283.69 63.4776 283.825 60.0365 284.587 56.7093L284.642 56.4719L288.129 41.8466C288.32 41.005 289.008 40.3676 289.861 40.2421Z" fill="#289976"/>
<path fill-rule="evenodd" clip-rule="evenodd" d="M304.721 80.6425C305.112 80.5842 305.478 80.8432 305.558 81.2267L305.566 81.2698L312.449 127.652C312.509 128.047 312.535 128.447 312.526 128.847C312.518 129.259 312.178 129.585 311.767 129.576C311.356 129.568 311.03 129.227 311.039 128.816C311.044 128.554 311.031 128.292 310.999 128.03L310.977 127.873L304.094 81.4888C304.034 81.0819 304.314 80.7029 304.721 80.6425Z" fill="#289976"/>
<path fill-rule="evenodd" clip-rule="evenodd" d="M287.033 80.8534C287.425 80.7951 287.791 81.0542 287.871 81.4376L287.878 81.4808L294.888 128.722C294.948 129.129 294.668 129.508 294.261 129.568C293.87 129.627 293.504 129.367 293.424 128.984L293.416 128.941L286.407 81.6997C286.346 81.2928 286.627 80.9139 287.033 80.8534Z" fill="#289976"/>
<path fill-rule="evenodd" clip-rule="evenodd" d="M297.247 51.7555L291.334 41.6368C291.06 41.1534 290.518 40.8881 289.969 40.969C289.42 41.0498 288.977 41.4601 288.854 42.0018L286.156 53.3695C289.097 52.2794 294.294 50.6853 297.247 51.7555Z" fill="#289976"/>
<path fill-rule="evenodd" clip-rule="evenodd" d="M301.935 62.3263C301.819 61.7974 301.687 61.2735 301.539 60.7545C299.059 60.4739 295.96 60.7396 293.782 63.0985C290.574 61.2188 286.986 62.3909 284.66 63.5952C284.678 64.1464 284.712 64.7001 284.762 65.2514C286.79 64.0893 290.331 62.6491 293.239 64.5065L294.685 74.2576L296.22 74.4563L294.71 64.2879C296.622 62.0581 299.666 61.9811 301.935 62.3263Z" fill="#289976"/>
<path fill-rule="evenodd" clip-rule="evenodd" d="M297.247 81.7861H295.742L302.72 128.796L304.227 128.831L297.247 81.7861V81.7861Z" fill="#289976"/>
<path fill-rule="evenodd" clip-rule="evenodd" d="M313.475 92.6221C313.73 92.2997 314.198 92.2455 314.52 92.501C314.829 92.7467 314.891 93.1894 314.669 93.5097L314.64 93.5475L292.456 121.577C292.201 121.899 291.733 121.953 291.411 121.698C291.101 121.452 291.039 121.01 291.262 120.689L291.29 120.651L313.475 92.6221Z" fill="#121212"/>
<path fill-rule="evenodd" clip-rule="evenodd" d="M314.153 103.631C314.408 103.308 314.876 103.252 315.198 103.507C315.508 103.752 315.571 104.195 315.349 104.516L315.321 104.554L295.758 129.38C295.503 129.703 295.035 129.758 294.713 129.503C294.403 129.258 294.34 128.815 294.562 128.495L294.59 128.457L314.153 103.631Z" fill="#121212"/>
<path fill-rule="evenodd" clip-rule="evenodd" d="M315.873 113.063C316.13 112.741 316.598 112.689 316.918 112.947C317.227 113.194 317.287 113.637 317.063 113.956L317.034 113.994L304.805 129.297C304.548 129.618 304.08 129.67 303.76 129.413C303.451 129.166 303.391 128.723 303.615 128.404L303.644 128.366L315.873 113.063Z" fill="#121212"/>
<path fill-rule="evenodd" clip-rule="evenodd" d="M315.324 124.191C315.578 123.868 316.046 123.812 316.368 124.067C316.678 124.312 316.742 124.755 316.52 125.076L316.492 125.113L313.016 129.528C312.761 129.852 312.293 129.907 311.971 129.652C311.661 129.407 311.598 128.965 311.819 128.644L311.847 128.606L315.324 124.191Z" fill="#121212"/>
<path fill-rule="evenodd" clip-rule="evenodd" d="M312.355 82.625C312.613 82.3047 313.082 82.2545 313.401 82.5127C313.709 82.7611 313.767 83.2042 313.542 83.5226L313.514 83.5602L289.71 113.122C289.452 113.442 288.983 113.492 288.664 113.234C288.356 112.986 288.298 112.542 288.523 112.224L288.552 112.186L312.355 82.625Z" fill="#121212"/>
<path fill-rule="evenodd" clip-rule="evenodd" d="M284.8 100.194C285.104 99.9415 285.549 99.9722 285.816 100.256L285.848 100.292L309.098 128.356C309.361 128.672 309.317 129.142 309.001 129.405C308.697 129.657 308.252 129.627 307.985 129.342L307.954 129.307L284.703 101.243C284.44 100.926 284.484 100.457 284.8 100.194Z" fill="#121212"/>
<path fill-rule="evenodd" clip-rule="evenodd" d="M291.377 120.558C291.672 120.295 292.118 120.309 292.395 120.584L292.428 120.618L299.388 128.422C299.661 128.729 299.635 129.2 299.328 129.474C299.034 129.738 298.588 129.723 298.311 129.449L298.278 129.415L291.318 121.61C291.044 121.303 291.071 120.833 291.377 120.558Z" fill="#121212"/>
<path fill-rule="evenodd" clip-rule="evenodd" d="M304.345 81.0156C304.649 80.7638 305.094 80.7957 305.361 81.0806L305.392 81.116L314.296 91.92C314.557 92.2373 314.513 92.7068 314.196 92.9687C313.891 93.2205 313.446 93.1886 313.18 92.9037L313.149 92.8683L304.244 82.0643C303.983 81.747 304.028 81.2775 304.345 81.0156Z" fill="#121212"/>
<path fill-rule="evenodd" clip-rule="evenodd" d="M296.301 81.1408C296.604 80.8867 297.049 80.9152 297.318 81.1981L297.349 81.2332L315.014 102.34C315.277 102.655 315.236 103.125 314.921 103.389C314.619 103.643 314.173 103.615 313.905 103.332L313.873 103.297L296.209 82.1903C295.945 81.8749 295.986 81.4051 296.301 81.1408Z" fill="#121212"/>
<path fill-rule="evenodd" clip-rule="evenodd" d="M287.523 81.0169C287.827 80.7643 288.272 80.795 288.539 81.0792L288.57 81.1145L316.57 114.91C316.832 115.226 316.788 115.696 316.472 115.959C316.168 116.211 315.723 116.18 315.456 115.896L315.425 115.861L287.425 82.0658C287.163 81.7492 287.207 81.2796 287.523 81.0169Z" fill="#121212"/>
<path fill-rule="evenodd" clip-rule="evenodd" d="M278.913 81.1385C279.217 80.8859 279.663 80.9165 279.93 81.2008L279.961 81.2361L316.428 125.249C316.69 125.566 316.647 126.035 316.33 126.298C316.026 126.551 315.581 126.52 315.314 126.236L315.283 126.2L278.816 82.1874C278.554 81.8708 278.597 81.4012 278.913 81.1385Z" fill="#121212"/>
<path fill-rule="evenodd" clip-rule="evenodd" d="M287.776 81.2308C288.03 80.9078 288.498 80.8526 288.821 81.1074C289.131 81.3524 289.194 81.7949 288.972 82.1158L288.944 82.1536L282.621 90.179C282.366 90.502 281.899 90.5573 281.576 90.3024C281.266 90.0574 281.203 89.6149 281.425 89.2941L281.453 89.2562L287.776 81.2308Z" fill="#121212"/>
<path fill-rule="evenodd" clip-rule="evenodd" d="M295.763 80.9202C296.018 80.5973 296.485 80.542 296.808 80.7969C297.118 81.0419 297.181 81.4844 296.959 81.8052L296.931 81.8431L284.633 97.4519C284.378 97.7749 283.91 97.8301 283.588 97.5753C283.278 97.3302 283.215 96.8877 283.437 96.5669L283.465 96.529L295.763 80.9202Z" fill="#121212"/>
<path fill-rule="evenodd" clip-rule="evenodd" d="M304.48 81.1266C304.736 80.8046 305.204 80.751 305.525 81.0071C305.834 81.2532 305.896 81.696 305.673 82.016L305.645 82.0538L287.182 105.311C286.926 105.633 286.458 105.686 286.136 105.43C285.827 105.184 285.766 104.741 285.989 104.421L286.017 104.383L304.48 81.1266Z" fill="#121212"/>
<path fill-rule="evenodd" clip-rule="evenodd" d="M313.62 87.9042C313.927 87.6553 314.372 87.6915 314.635 87.9789L314.666 88.0146L347.634 128.812C347.893 129.132 347.843 129.601 347.524 129.86C347.217 130.109 346.772 130.073 346.508 129.785L346.478 129.749L313.509 88.9519C313.251 88.632 313.3 88.163 313.62 87.9042Z" fill="#121212"/>
<path fill-rule="evenodd" clip-rule="evenodd" d="M314.342 100.486C314.649 100.237 315.094 100.273 315.358 100.561L315.389 100.597L338.054 128.646C338.313 128.966 338.263 129.435 337.944 129.694C337.637 129.942 337.192 129.906 336.928 129.619L336.898 129.583L314.232 101.534C313.974 101.214 314.023 100.745 314.342 100.486Z" fill="#121212"/>
<path fill-rule="evenodd" clip-rule="evenodd" d="M314.823 112.522C315.13 112.273 315.575 112.309 315.838 112.597L315.869 112.632L328.77 128.599C329.029 128.919 328.979 129.388 328.66 129.646C328.353 129.895 327.908 129.859 327.644 129.572L327.614 129.536L314.713 113.57C314.454 113.25 314.503 112.781 314.823 112.522Z" fill="#121212"/>
<path fill-rule="evenodd" clip-rule="evenodd" d="M315.507 123.638C315.814 123.39 316.259 123.426 316.522 123.713L316.553 123.749L320.508 128.646C320.766 128.966 320.717 129.435 320.397 129.693C320.09 129.942 319.645 129.906 319.382 129.618L319.351 129.583L315.396 124.686C315.138 124.366 315.187 123.897 315.507 123.638Z" fill="#121212"/>
<path fill-rule="evenodd" clip-rule="evenodd" d="M317.114 81.016C317.418 80.764 317.863 80.7955 318.13 81.0801L318.161 81.1155L352.773 123.04C353.035 123.357 352.991 123.827 352.674 124.089C352.369 124.341 351.924 124.31 351.658 124.025L351.627 123.99L317.014 82.0648C316.753 81.7477 316.797 81.2782 317.114 81.016Z" fill="#121212"/>
<path fill-rule="evenodd" clip-rule="evenodd" d="M356.613 86.0266C356.873 85.7075 357.341 85.6595 357.66 85.9192C357.966 86.169 358.022 86.6124 357.795 86.9298L357.767 86.9672L323.348 129.302C323.089 129.621 322.62 129.669 322.302 129.409C321.995 129.159 321.939 128.716 322.166 128.399L322.194 128.361L356.613 86.0266Z" fill="#121212"/>
<path fill-rule="evenodd" clip-rule="evenodd" d="M354.721 100.055C354.98 99.7354 355.448 99.6859 355.767 99.9447C356.074 100.194 356.132 100.637 355.906 100.955L355.878 100.992L332.885 129.449C332.626 129.769 332.158 129.818 331.838 129.559C331.531 129.31 331.474 128.867 331.7 128.549L331.728 128.512L354.721 100.055Z" fill="#121212"/>
<path fill-rule="evenodd" clip-rule="evenodd" d="M352.494 114.254C352.752 113.934 353.221 113.885 353.54 114.143C353.847 114.392 353.904 114.836 353.679 115.154L353.65 115.191L341.885 129.75C341.626 130.069 341.158 130.119 340.838 129.86C340.531 129.611 340.474 129.168 340.7 128.85L340.728 128.812L352.494 114.254Z" fill="#121212"/>
<path fill-rule="evenodd" clip-rule="evenodd" d="M351.206 126.118C351.464 125.798 351.933 125.749 352.252 126.008C352.559 126.257 352.617 126.7 352.391 127.018L352.362 127.055L350.185 129.75C349.927 130.069 349.459 130.119 349.139 129.86C348.832 129.611 348.775 129.168 349 128.85L349.029 128.812L351.206 126.118Z" fill="#121212"/>
<path fill-rule="evenodd" clip-rule="evenodd" d="M327.547 80.8747C327.826 80.5732 328.297 80.5559 328.598 80.8359C328.887 81.1051 328.914 81.5512 328.667 81.8531L328.637 81.8886L314.801 96.8047C314.521 97.1061 314.05 97.1235 313.749 96.8435C313.46 96.5743 313.433 96.1281 313.68 95.8262L313.711 95.7907L327.547 80.8747Z" fill="#121212"/>
<path fill-rule="evenodd" clip-rule="evenodd" d="M319.585 81.4202C319.875 81.1283 320.346 81.1266 320.637 81.4165C320.917 81.6949 320.93 82.1407 320.674 82.4342L320.641 82.47L314.615 88.5462C314.326 88.8381 313.855 88.8398 313.563 88.5499C313.284 88.2716 313.271 87.8258 313.526 87.5323L313.56 87.4964L319.585 81.4202Z" fill="#121212"/>
<path fill-rule="evenodd" clip-rule="evenodd" d="M334.303 80.9024C334.567 80.5874 335.037 80.5467 335.351 80.8114C335.653 81.0659 335.703 81.5101 335.471 81.8239L335.442 81.8609L315.38 105.768C315.115 106.083 314.646 106.124 314.332 105.859C314.029 105.605 313.98 105.161 314.212 104.847L314.241 104.81L334.303 80.9024Z" fill="#121212"/>
<path fill-rule="evenodd" clip-rule="evenodd" d="M342.242 81.1206C342.501 80.8012 342.969 80.7525 343.288 81.0119C343.595 81.2613 343.652 81.7046 343.425 82.0223L343.397 82.0598L316.345 115.42C316.086 115.74 315.617 115.788 315.298 115.529C314.992 115.28 314.935 114.836 315.161 114.519L315.19 114.481L342.242 81.1206Z" fill="#121212"/>
<path fill-rule="evenodd" clip-rule="evenodd" d="M352.794 81.2074C353.062 80.895 353.531 80.8589 353.843 81.1267C354.143 81.3841 354.188 81.8288 353.953 82.1403L353.924 82.1771L316.602 125.773C316.334 126.085 315.865 126.121 315.553 125.854C315.253 125.596 315.208 125.152 315.443 124.84L315.472 124.803L352.794 81.2074Z" fill="#121212"/>
<path fill-rule="evenodd" clip-rule="evenodd" d="M342.913 80.8275C343.22 80.5787 343.665 80.6148 343.928 80.9022L343.959 80.9379L355.762 95.5411C356.02 95.8609 355.971 96.3299 355.651 96.5888C355.344 96.8377 354.899 96.8015 354.636 96.5141L354.605 96.4784L342.802 81.8752C342.544 81.5554 342.593 81.0864 342.913 80.8275Z" fill="#121212"/>
<path fill-rule="evenodd" clip-rule="evenodd" d="M351.163 81.1132C351.47 80.8643 351.915 80.9004 352.178 81.1879L352.209 81.2236L357.324 87.553C357.583 87.8728 357.533 88.3419 357.214 88.6007C356.907 88.8496 356.462 88.8135 356.199 88.526L356.168 88.4903L351.052 82.1609C350.794 81.8411 350.843 81.372 351.163 81.1132Z" fill="#121212"/>
<path fill-rule="evenodd" clip-rule="evenodd" d="M335.096 80.8275C335.403 80.5787 335.848 80.6148 336.112 80.9022L336.142 80.9379L355.21 104.532C355.469 104.852 355.419 105.321 355.1 105.58C354.793 105.829 354.348 105.793 354.084 105.505L354.054 105.47L334.986 81.8752C334.728 81.5554 334.777 81.0863 335.096 80.8275Z" fill="#121212"/>
<path fill-rule="evenodd" clip-rule="evenodd" d="M326.616 81.1849C326.923 80.9361 327.368 80.9722 327.631 81.2597L327.662 81.2954L353.648 113.452C353.906 113.771 353.857 114.24 353.537 114.499C353.23 114.748 352.785 114.712 352.522 114.425L352.491 114.389L326.505 82.2326C326.247 81.9128 326.296 81.4437 326.616 81.1849Z" fill="#121212"/>
<path fill-rule="evenodd" clip-rule="evenodd" d="M357.142 81.3016C357.197 80.8939 357.571 80.608 357.979 80.663C358.371 80.7161 358.651 81.0668 358.621 81.4574L358.616 81.5009L352.184 129.214C352.129 129.622 351.755 129.907 351.348 129.852C350.955 129.799 350.675 129.449 350.705 129.058L350.71 129.014L357.142 81.3016Z" fill="#121212"/>
<path fill-rule="evenodd" clip-rule="evenodd" d="M313.315 80.9482C313.711 80.9238 314.053 81.2134 314.1 81.6023L314.104 81.646L316.99 128.592C317.015 129.002 316.703 129.356 316.293 129.381C315.898 129.405 315.555 129.116 315.509 128.727L315.505 128.683L312.619 81.7375C312.593 81.3269 312.905 80.9735 313.315 80.9482Z" fill="#121212"/>
<path fill-rule="evenodd" clip-rule="evenodd" d="M362.091 73.52C363.233 73.52 364.328 73.9745 365.136 74.7833C365.944 75.5922 366.398 76.6893 366.398 77.8332C366.398 80.1882 364.513 82.1024 362.171 82.1456L362.091 82.1463H312.499C312.089 82.1463 311.755 81.8128 311.755 81.4014C311.755 81.0047 312.065 80.6804 312.456 80.6577L312.499 80.6565H362.091C363.648 80.6565 364.91 79.3924 364.91 77.8332C364.91 77.0844 364.613 76.3663 364.084 75.8368C363.576 75.3277 362.893 75.0331 362.177 75.0112L362.091 75.0099L279.183 75.0099C278.542 75.0073 277.92 75.2242 277.419 75.6245C277.098 75.8811 276.63 75.8284 276.373 75.5067C276.117 75.1851 276.17 74.7164 276.491 74.4599C277.23 73.8696 278.141 73.5402 279.082 73.5209L279.186 73.52H362.091Z" fill="#121212"/>
<path fill-rule="evenodd" clip-rule="evenodd" d="M312.507 80.6562C312.918 80.6562 313.251 80.9898 313.251 81.4012C313.251 81.7979 312.941 82.1222 312.55 82.1448L312.507 82.1461H279.181C278.771 82.1461 278.438 81.8126 278.438 81.4012C278.438 81.0045 278.747 80.6802 279.138 80.6575L279.181 80.6562H312.507Z" fill="#121212"/>
<path fill-rule="evenodd" clip-rule="evenodd" d="M78.1322 82.7296C78.543 82.7356 78.8712 83.0739 78.8652 83.4853C78.8074 87.4606 78.0523 91.3947 76.6342 95.1082C76.4874 95.4925 76.0574 95.6849 75.6737 95.5379C75.29 95.3909 75.0978 94.9603 75.2446 94.576C76.6004 91.0257 77.3224 87.2643 77.3776 83.4636C77.3836 83.0522 77.7214 82.7236 78.1322 82.7296Z" fill="#121212"/>
<path fill-rule="evenodd" clip-rule="evenodd" d="M77.614 87.2822C77.686 86.8921 78.0493 86.6295 78.4374 86.6782L78.4806 86.6849L99.666 90.6007C100.07 90.6754 100.337 91.0639 100.262 91.4685C100.191 91.8586 99.8272 92.1213 99.4391 92.0726L99.3959 92.0659L78.2105 88.15C77.8065 88.0753 77.5395 87.6868 77.614 87.2822Z" fill="#121212"/>
<path fill-rule="evenodd" clip-rule="evenodd" d="M76.8328 91.5258C76.9047 91.1357 77.268 90.8731 77.6562 90.9218L77.6994 90.9285L101.297 95.2913C101.701 95.366 101.968 95.7546 101.894 96.1591C101.822 96.5493 101.459 96.8119 101.07 96.7632L101.027 96.7565L77.4293 92.3936C77.0253 92.3189 76.7582 91.9304 76.8328 91.5258Z" fill="#121212"/>
<path fill-rule="evenodd" clip-rule="evenodd" d="M77.2234 89.4053C77.2953 89.0152 77.6586 88.7525 78.0467 88.8012L78.0899 88.8079L100.624 92.9721C101.028 93.0467 101.295 93.4353 101.221 93.8398C101.149 94.23 100.786 94.4926 100.397 94.4439L100.354 94.4372L77.82 90.273C77.4159 90.1984 77.1489 89.8099 77.2234 89.4053Z" fill="#121212"/>
<path fill-rule="evenodd" clip-rule="evenodd" d="M71.3544 79.2651C71.7167 77.2928 73.6877 76.0226 75.7566 76.364L75.8362 76.3779L96.9596 80.2813C97.3636 80.356 97.6307 80.7445 97.5561 81.1491C97.4842 81.5392 97.1209 81.8018 96.7328 81.7532L96.6896 81.7465L75.5662 77.843C74.2522 77.6001 73.0309 78.3736 72.8176 79.5347C72.6078 80.6766 73.4389 81.8155 74.7137 82.0854L74.7825 82.099L98.8342 86.5462C99.2382 86.6209 99.5053 87.0095 99.4307 87.4141C99.3587 87.8042 98.9954 88.0668 98.6073 88.018L98.5641 88.0113L74.5124 83.5641C72.4153 83.1764 70.9875 81.2626 71.3544 79.2651Z" fill="#121212"/>
<path fill-rule="evenodd" clip-rule="evenodd" d="M68.1317 96.6518C68.4941 94.6792 70.4654 93.4069 72.5338 93.7481L72.6134 93.7621L102.209 99.2249C102.613 99.2995 102.881 99.6879 102.806 100.093C102.734 100.483 102.371 100.745 101.983 100.697L101.94 100.69L72.3435 95.2272C71.0303 94.9844 69.8084 95.7595 69.5949 96.9213C69.3852 98.0633 70.2162 99.2016 71.491 99.4696L71.5598 99.4832L104.027 105.485C104.431 105.56 104.698 105.948 104.624 106.353C104.552 106.743 104.188 107.005 103.8 106.957L103.757 106.95L71.2907 100.948C69.1934 100.564 67.7647 98.6498 68.1317 96.6518Z" fill="#121212"/>
<path fill-rule="evenodd" clip-rule="evenodd" d="M43.2694 122.926C44.2499 122.62 45.2927 123.167 45.5987 124.149C45.9047 125.131 45.3579 126.175 44.3775 126.482C41.1573 127.488 38.1818 128.855 36.212 130.51C33.8151 132.524 33.3536 134.482 35.1243 137.056C35.7069 137.904 35.4935 139.063 34.6477 139.647C33.8018 140.23 32.6439 140.016 32.0613 139.169C29.1047 134.871 30.06 130.817 33.8214 127.657C36.254 125.613 39.6186 124.067 43.2694 122.926Z" fill="#121212"/>
<path fill-rule="evenodd" clip-rule="evenodd" d="M65.5159 119.904C65.574 119.512 65.9278 119.237 66.3174 119.272L66.3608 119.277L109.82 125.725C110.227 125.786 110.507 126.164 110.447 126.571C110.389 126.964 110.035 127.239 109.645 127.204L109.602 127.199L66.1428 120.75C65.7364 120.69 65.4557 120.311 65.5159 119.904Z" fill="#289976"/>
<path fill-rule="evenodd" clip-rule="evenodd" d="M63.4573 115.765C63.5154 115.373 63.8692 115.097 64.2588 115.132L64.3022 115.138L108.949 121.76C109.356 121.82 109.636 122.199 109.576 122.606C109.518 122.998 109.164 123.274 108.775 123.239L108.731 123.234L64.0842 116.611C63.6778 116.551 63.3972 116.172 63.4573 115.765Z" fill="#289976"/>
<path fill-rule="evenodd" clip-rule="evenodd" d="M65.4613 123.992C65.5193 123.599 65.8731 123.324 66.2627 123.359L66.3061 123.364L111.179 130.021C111.585 130.082 111.866 130.46 111.806 130.867C111.748 131.26 111.394 131.535 111.004 131.5L110.961 131.495L66.0881 124.838C65.6817 124.778 65.4011 124.399 65.4613 123.992Z" fill="#289976"/>
<path fill-rule="evenodd" clip-rule="evenodd" d="M64.3167 128.139C64.3748 127.746 64.7286 127.471 65.1182 127.506L65.1616 127.511L113.243 134.645C113.649 134.705 113.93 135.084 113.87 135.491C113.812 135.884 113.458 136.159 113.068 136.124L113.025 136.119L64.9435 128.985C64.5371 128.925 64.2565 128.546 64.3167 128.139Z" fill="#289976"/>
<path fill-rule="evenodd" clip-rule="evenodd" d="M61.805 131.377C61.8631 130.984 62.2169 130.709 62.6065 130.744L62.6499 130.749L97.0911 135.862C97.4975 135.922 97.7781 136.301 97.7178 136.708C97.6597 137.1 97.3059 137.375 96.9163 137.341L96.8729 137.335L62.4318 132.223C62.0254 132.162 61.7448 131.783 61.805 131.377Z" fill="#289976"/>
<path fill-rule="evenodd" clip-rule="evenodd" d="M52.338 110.654C52.3894 110.245 52.7615 109.956 53.1691 110.008C56.4787 110.426 59.455 111.318 61.879 112.925C65.1658 115.104 67.0182 118.379 67.0062 122.864C66.9954 127.258 65.1741 130.61 61.9881 132.881C59.4769 134.671 56.2196 135.685 53.1219 135.877C52.7118 135.902 52.3589 135.59 52.3335 135.179C52.3082 134.769 52.6201 134.415 53.0301 134.39C55.8673 134.214 58.8589 133.283 61.1254 131.668C63.9294 129.669 65.5089 126.762 65.5185 122.86C65.5291 118.89 63.9377 116.077 61.0578 114.168C58.8578 112.709 56.0856 111.878 52.9828 111.486C52.5752 111.435 52.2865 111.062 52.338 110.654Z" fill="#289976"/>
<path fill-rule="evenodd" clip-rule="evenodd" d="M52.3203 107.382C52.3203 106.928 52.7212 106.583 53.1639 106.644L53.2069 106.651L107.227 117.224C107.63 117.303 107.893 117.694 107.814 118.098C107.738 118.487 107.372 118.746 106.984 118.693L106.941 118.686L53.8081 108.286V136.184L87.0245 135.861C87.4206 135.857 87.7475 136.164 87.7739 136.555L87.7756 136.598C87.7794 136.995 87.4729 137.322 87.0827 137.349L87.039 137.351L53.0714 137.681C52.6725 137.685 52.3445 137.374 52.3216 136.98L52.3203 136.936V107.382Z" fill="#289976"/>
<path fill-rule="evenodd" clip-rule="evenodd" d="M46.1091 98.0551C47.2668 97.0876 48.785 96.6713 50.2716 96.9102L50.3752 96.928L104.301 106.811C104.705 106.885 104.973 107.273 104.899 107.678C104.827 108.068 104.464 108.331 104.076 108.283L104.033 108.276L50.1086 98.3937C49.0242 98.1969 47.9085 98.4918 47.0623 99.199C46.241 99.8853 45.7558 100.891 45.7273 101.959L45.726 102.056V143.094C45.726 143.506 45.393 143.839 44.9822 143.839C44.586 143.839 44.2622 143.529 44.2395 143.138L44.2383 143.094L44.2383 102.055C44.2393 100.51 44.9245 99.0451 46.1091 98.0551Z" fill="#289976"/>
<path fill-rule="evenodd" clip-rule="evenodd" d="M254.491 17.7713L90.7532 19.2812C87.763 19.3042 84.9554 20.7301 83.1694 23.1333C81.3834 25.5365 80.8256 28.6392 81.6625 31.5153L115.069 146.651C115.162 146.97 115.453 147.189 115.784 147.189H406.845C411.924 147.189 415.273 143.853 417.201 138.413C417.862 136.549 418.309 134.561 418.584 132.573C418.67 131.948 418.734 131.362 418.778 130.828L418.799 130.552L418.812 130.363L418.823 130.189L418.831 130.033L418.836 129.906L418.836 129.863C418.825 129.465 418.501 129.142 418.098 129.139L294.946 128.172L260.561 22.1447C259.708 19.5167 257.251 17.7465 254.491 17.7713ZM90.766 20.771L254.505 19.2611C256.615 19.2422 258.494 20.5959 259.147 22.6052L293.697 129.143L293.712 129.186C293.823 129.467 294.094 129.655 294.399 129.658L417.302 130.622L417.28 130.877C417.239 131.338 417.183 131.838 417.11 132.369C416.848 134.263 416.423 136.156 415.8 137.914L415.747 138.061C414.001 142.882 411.13 145.699 406.845 145.699H116.342L83.0912 31.099C82.3846 28.6706 82.8554 26.0515 84.3631 24.0228C85.8707 21.9941 88.2408 20.7905 90.766 20.771Z" fill="#121212"/>
<path fill-rule="evenodd" clip-rule="evenodd" d="M251.013 24.4567L250.936 24.4561L101.642 24.7642C100.616 24.765 99.6509 25.2511 99.038 26.0754C98.4251 26.8996 98.2369 27.9653 98.5302 28.9501L125.423 119.67C125.834 121.049 127.098 121.995 128.534 122L281.388 122.311C282.435 122.313 283.418 121.81 284.031 120.96C284.644 120.11 284.811 119.017 284.48 118.023L254.041 26.6812C253.604 25.3694 252.388 24.48 251.013 24.4567ZM101.644 26.2541L250.942 25.9461L250.946 25.9461C251.709 25.9408 252.389 26.4279 252.63 27.1528L283.069 118.494C283.249 119.033 283.158 119.627 282.826 120.088C282.493 120.549 281.959 120.822 281.391 120.821L128.538 120.51C127.759 120.508 127.073 119.993 126.85 119.244L99.9565 28.5252C99.7971 27.9901 99.8992 27.4122 100.232 26.9651C100.564 26.5181 101.088 26.2545 101.644 26.2541Z" fill="#289976"/>
<path fill-rule="evenodd" clip-rule="evenodd" d="M154.177 52.256C152.033 54.7806 153.076 59.0494 156.346 61.8342C159.616 64.619 163.991 64.9647 166.135 62.4401C168.279 59.9155 167.235 55.6466 163.966 52.8618C160.696 50.077 156.321 49.7313 154.177 52.256ZM155.311 53.2213C156.843 51.4174 160.294 51.6901 163.002 53.9966C165.711 56.3032 166.534 59.6708 165.002 61.4747C163.47 63.2787 160.018 63.006 157.31 60.6994C154.602 58.3928 153.779 55.0253 155.311 53.2213Z" fill="#289976"/>
<path fill-rule="evenodd" clip-rule="evenodd" d="M162.451 63.605C169.453 63.605 176.973 68.506 180.542 75.247C180.734 75.6105 180.596 76.0614 180.233 76.2541C179.87 76.4468 179.42 76.3083 179.227 75.9449C175.908 69.6744 168.881 65.0948 162.451 65.0948C156.177 65.0948 152.323 69.4604 153.068 75.5325C153.118 75.9408 152.828 76.3125 152.42 76.3626C152.012 76.4127 151.641 76.1224 151.591 75.714C150.738 68.754 155.283 63.605 162.451 63.605Z" fill="#289976"/>
<path fill-rule="evenodd" clip-rule="evenodd" d="M207.267 85.0944C205.123 87.619 206.166 91.8878 209.436 94.6726C212.706 97.4574 217.08 97.8031 219.224 95.2785C221.368 92.7538 220.325 88.485 217.056 85.7002C213.786 82.9154 209.411 82.5697 207.267 85.0944ZM208.401 86.0597C209.933 84.2557 213.384 84.5284 216.092 86.835C218.8 89.1416 219.623 92.5092 218.091 94.3131C216.559 96.1171 213.108 95.8444 210.4 93.5378C207.692 91.2312 206.869 87.8636 208.401 86.0597Z" fill="#289976"/>
<path fill-rule="evenodd" clip-rule="evenodd" d="M215.54 96.4463C222.595 96.4463 230.237 101.475 233.745 108.305C233.933 108.671 233.789 109.12 233.423 109.308C233.058 109.496 232.61 109.352 232.422 108.986C229.161 102.636 222.018 97.9362 215.54 97.9362C209.239 97.9362 205.382 102.338 206.166 108.447C206.219 108.855 205.931 109.228 205.524 109.28C205.116 109.333 204.743 109.045 204.691 108.636C203.792 101.638 208.341 96.4463 215.54 96.4463Z" fill="#289976"/>
<path fill-rule="evenodd" clip-rule="evenodd" d="M199.724 45.4571C197.58 47.9818 198.623 52.2506 201.893 55.0354C205.163 57.8202 209.537 58.1659 211.681 55.6413C213.825 53.1166 212.782 48.8478 209.513 46.063C206.243 43.2782 201.868 42.9325 199.724 45.4571ZM200.858 46.4225C202.39 44.6185 205.841 44.8912 208.549 47.1978C211.258 49.5044 212.081 52.872 210.549 54.6759C209.017 56.4799 205.565 56.2072 202.857 53.9006C200.149 51.594 199.326 48.2264 200.858 46.4225Z" fill="#FA742E"/>
<path fill-rule="evenodd" clip-rule="evenodd" d="M207.994 56.8159C215.109 56.8159 222.752 61.8743 226.243 68.7628C226.428 69.1297 226.282 69.578 225.916 69.7642C225.549 69.9503 225.102 69.8038 224.916 69.4369C221.671 63.0327 214.528 58.3058 207.994 58.3058C201.664 58.3058 197.804 62.7402 198.63 68.8838C198.684 69.2915 198.399 69.6665 197.992 69.7214C197.584 69.7763 197.21 69.4903 197.155 69.0825C196.209 62.0463 200.762 56.8159 207.994 56.8159Z" fill="#FA742E"/>
<path fill-rule="evenodd" clip-rule="evenodd" d="M167.204 47.0029C167.614 47.0029 167.947 47.3364 167.947 47.7479C167.947 48.1446 167.638 48.4689 167.247 48.4915L167.204 48.4928L139.093 48.4925L147.795 75.2753H184.206L176.37 51.1542C176.247 50.7769 176.442 50.3726 176.806 50.2301L176.847 50.2154C177.224 50.0926 177.628 50.2872 177.77 50.6521L177.785 50.6933L185.937 75.7901C186.089 76.2573 185.756 76.7364 185.274 76.7642L185.23 76.7655H147.255C146.949 76.7655 146.675 76.5771 146.564 76.2942L146.548 76.251L137.361 47.9784C137.209 47.5111 137.543 47.032 138.024 47.0042L138.069 47.0029H167.204Z" fill="#289976"/>
<path fill-rule="evenodd" clip-rule="evenodd" d="M221.585 40.2065C221.892 40.2065 222.165 40.3949 222.277 40.6779L222.292 40.7211L224.893 48.7291C225.02 49.1203 224.807 49.5406 224.416 49.6679C224.039 49.7906 223.635 49.596 223.493 49.2312L223.478 49.1899L221.044 41.6962H184.632L193.335 68.4765H229.747L225.16 54.3599C225.037 53.9826 225.231 53.5783 225.596 53.4357L225.637 53.421C226.013 53.2982 226.417 53.4927 226.56 53.8576L226.574 53.8988L231.479 68.9911C231.631 69.4583 231.298 69.9375 230.816 69.9653L230.772 69.9666H192.794C192.488 69.9666 192.214 69.7782 192.103 69.4953L192.087 69.4522L182.9 41.182C182.749 40.7148 183.082 40.2356 183.563 40.2078L183.608 40.2065H221.585Z" fill="#FA742E"/>
<path fill-rule="evenodd" clip-rule="evenodd" d="M229.132 79.8442C229.438 79.8442 229.712 80.0326 229.823 80.3155L229.839 80.3587L239.026 108.631C239.178 109.099 238.844 109.578 238.363 109.606L238.318 109.607H200.341C200.035 109.607 199.761 109.418 199.649 109.135L199.634 109.092L198.692 106.192C198.565 105.801 198.778 105.38 199.169 105.253C199.546 105.13 199.949 105.325 200.092 105.69L200.106 105.731L200.881 108.117H237.294L228.591 81.3341H192.179L198.242 99.9876C198.364 100.365 198.17 100.769 197.806 100.912L197.765 100.926C197.388 101.049 196.984 100.855 196.842 100.49L196.827 100.449L190.447 80.8197C190.295 80.3525 190.628 79.8733 191.11 79.8455L191.155 79.8442H229.132Z" fill="#289976"/>
<path fill-rule="evenodd" clip-rule="evenodd" d="M179.377 44.8896H166.518C166.012 44.8896 165.654 45.3836 165.81 45.865L167.444 50.8958C167.544 51.2026 167.83 51.4103 168.152 51.4103H181.011C181.516 51.4103 181.875 50.9163 181.718 50.4349L180.084 45.4042C179.985 45.0973 179.699 44.8896 179.377 44.8896ZM178.836 46.3795L179.986 49.9202H168.692L167.541 46.3795H178.836Z" fill="#289976"/>
<path fill-rule="evenodd" clip-rule="evenodd" d="M229.861 48.356H217.002C216.497 48.356 216.138 48.85 216.295 49.3314L217.929 54.3597C218.029 54.6665 218.314 54.8741 218.636 54.8741H231.495C232.001 54.8741 232.359 54.38 232.203 53.8987L230.569 48.8704C230.469 48.5636 230.183 48.356 229.861 48.356ZM229.321 49.8458L230.471 53.3843H219.177L218.027 49.8458H229.321Z" fill="#FA742E"/>
<path fill-rule="evenodd" clip-rule="evenodd" d="M200.322 99.7065H187.463C186.958 99.7065 186.599 100.201 186.756 100.682L188.39 105.713C188.489 106.019 188.775 106.227 189.097 106.227H201.959C202.464 106.227 202.823 105.733 202.666 105.252L201.03 100.221C200.93 99.9141 200.644 99.7065 200.322 99.7065ZM199.782 101.196L200.933 104.737H189.637L188.487 101.196H199.782Z" fill="#289976"/>
<path fill-rule="evenodd" clip-rule="evenodd" d="M131.912 47.0392C132.289 46.9164 132.693 47.111 132.835 47.4758L132.85 47.5171L142.037 75.7897C142.164 76.181 141.95 76.6013 141.559 76.7286C141.183 76.8514 140.779 76.6568 140.637 76.292L140.622 76.2508L131.435 47.9781C131.308 47.5869 131.522 47.1665 131.912 47.0392Z" fill="#289976"/>
<path fill-rule="evenodd" clip-rule="evenodd" d="M188.057 69.8663C188.434 69.7436 188.837 69.9383 188.98 70.3032L188.994 70.3444L190.595 75.275L214.067 75.2752C214.463 75.2752 214.787 75.5854 214.81 75.9764L214.811 76.0202C214.811 76.4169 214.501 76.7412 214.111 76.7638L214.067 76.7651H190.055C189.748 76.7651 189.474 76.5767 189.363 76.2936L189.348 76.2505L187.58 70.8051C187.453 70.4138 187.666 69.9935 188.057 69.8663Z" fill="#289976"/>
<path fill-rule="evenodd" clip-rule="evenodd" d="M186.767 79.7925C187.074 79.7925 187.347 79.9808 187.459 80.2638L187.474 80.3069L192.084 94.4929C192.211 94.8841 191.997 95.3045 191.606 95.4318C191.23 95.5545 190.826 95.36 190.684 94.9952L190.669 94.9539L186.226 81.2821L181.342 81.2823C180.945 81.2823 180.622 80.9722 180.599 80.5812L180.598 80.5374C180.598 80.1407 180.907 79.8164 181.298 79.7937L181.342 79.7925H186.767Z" fill="#289976"/>
<path fill-rule="evenodd" clip-rule="evenodd" d="M182.706 36.1795L182.678 36.1572L182.654 36.1371L182.588 36.0776C182.575 36.0668 182.562 36.0628 182.533 36.0595L182.456 36.0529L182.563 36.0602L182.825 36.0726L183.246 36.0866L183.995 36.1045L184.879 36.1202L186.52 36.1417L188.978 36.1643L192.788 36.187L196.535 36.2001L201.099 36.2068L204.461 36.2058L208.694 36.1969L212.492 36.1795L215.222 36.1587L217.011 36.1383L218.323 36.1169L219.009 36.1014L219.487 36.0869L219.79 36.0743L219.97 36.0638L220.032 36.0593L220.046 36.0549C220.41 35.9578 220.79 36.1498 220.928 36.5006L220.943 36.5418L220.957 36.6959L220.962 36.778C220.971 36.9405 220.958 37.01 220.894 37.1174L220.862 37.1701L220.798 37.2654L220.719 37.3387L220.682 37.3714L220.653 37.3949C220.644 37.4015 220.636 37.4072 220.628 37.4124L220.603 37.4272L220.555 37.4516C220.488 37.4838 220.434 37.5004 220.374 37.5137C220.323 37.5248 220.273 37.532 220.213 37.5383L220.087 37.5492L219.925 37.5591L219.682 37.5704L219.314 37.5832L218.861 37.5954L217.674 37.6185L216.03 37.6403L214.385 37.656L211.138 37.6769L207.414 37.6905L203.912 37.6962L199.362 37.6952L195.977 37.6885L191.526 37.6706L187.494 37.642L185.224 37.6202L183.91 37.6004L183.412 37.5885L183.113 37.5788L182.857 37.5678L182.639 37.5554L182.457 37.5414L182.305 37.5256L182.228 37.5152L182.159 37.504L182.099 37.492L182.045 37.4792L181.984 37.4607C181.979 37.4591 181.974 37.4574 181.97 37.4558L181.92 37.4352L181.887 37.4186L181.847 37.3948L181.811 37.3691C181.483 37.1209 181.418 36.6537 181.666 36.3256C181.905 36.0101 182.345 35.938 182.67 36.1535L182.706 36.1795Z" fill="#FA742E"/>
<path fill-rule="evenodd" clip-rule="evenodd" d="M92.0005 19.2603C92.4092 19.2185 92.7743 19.5163 92.8161 19.9256C92.8563 20.3203 92.5812 20.6744 92.195 20.7367L92.1438 20.7436L92.116 20.7496L92.073 20.7611L92.0161 20.779L91.9468 20.804C91.738 20.884 91.5252 21.0132 91.3225 21.2046C90.9069 21.5969 90.5973 22.1623 90.4256 22.9253L90.3959 23.0663C90.3771 23.1617 90.3603 23.26 90.3457 23.3613L90.3254 23.5155C90.2754 23.9326 90.2597 24.3976 90.2818 24.9132L90.2918 25.109L90.3055 25.3095C90.3081 25.3433 90.3108 25.3773 90.3137 25.4115L90.3328 25.6193C90.3398 25.6894 90.3474 25.7602 90.3556 25.8319L90.3822 26.0495L90.4126 26.2719L90.4467 26.4993C90.4527 26.5376 90.4589 26.5762 90.4653 26.6149L90.5053 26.8498C90.5122 26.8894 90.5194 26.9292 90.5267 26.9692L90.5726 27.2117L90.6225 27.4593L90.6765 27.712L90.7345 27.9698C90.7445 28.0133 90.7547 28.0569 90.765 28.1007L90.8293 28.3664L90.8977 28.6373C90.9094 28.6829 90.9214 28.7287 90.9335 28.7747L91.0082 29.0536C91.0211 29.1005 91.034 29.1476 91.0472 29.195L91.1285 29.4818L91.726 31.5415L93.7201 38.4836L97.7766 52.6673L110.173 96.1189L124.312 145.743C124.424 146.138 124.195 146.551 123.8 146.663C123.419 146.772 123.023 146.563 122.894 146.193L101.038 69.511L94.5891 46.9286L91.4946 36.1203L90.3654 32.1932L89.7431 30.0466C89.7129 29.9434 89.6834 29.8411 89.6547 29.7395L89.5709 29.4371C89.5572 29.3871 89.5438 29.3373 89.5306 29.2877L89.4534 28.9924L89.3807 28.7019C89.3572 28.6058 89.3345 28.5105 89.3124 28.4159L89.2485 28.1347C89.1971 27.9023 89.1502 27.6746 89.1077 27.4518L89.0589 27.1867L89.0144 26.9262C88.9932 26.797 88.9736 26.6696 88.9555 26.5439L88.9215 26.2947C88.9002 26.13 88.8817 25.9684 88.8659 25.8097L88.8443 25.574L88.8268 25.3427C88.7829 24.6935 88.7877 24.0976 88.8385 23.553L88.8583 23.3629C89.0247 21.9218 89.5248 20.8542 90.3019 20.1205C90.6522 19.7899 91.0318 19.5593 91.4154 19.4124C91.6581 19.3195 91.8596 19.2747 92.0005 19.2603Z" fill="#121212"/>
<path fill-rule="evenodd" clip-rule="evenodd" d="M292.98 127.364C293.391 127.364 293.724 127.697 293.724 128.109C293.724 128.505 293.415 128.83 293.024 128.852L292.98 128.854H118.744C118.333 128.854 118 128.52 118 128.109C118 127.712 118.31 127.388 118.7 127.365L118.744 127.364H292.98Z" fill="#121212"/>
<path fill-rule="evenodd" clip-rule="evenodd" d="M416.615 135.029C417.025 135.029 417.358 135.362 417.358 135.774C417.358 136.17 417.049 136.495 416.658 136.517L416.615 136.519H285.756C285.345 136.519 285.012 136.185 285.012 135.774C285.012 135.377 285.321 135.053 285.712 135.03L285.756 135.029H416.615Z" fill="#121212"/>
<path fill-rule="evenodd" clip-rule="evenodd" d="M286.726 127.364C287.136 127.382 287.455 127.729 287.437 128.14L287.426 128.363L287.407 128.647L287.383 128.97C287.332 129.621 287.258 130.344 287.158 131.123C286.872 133.35 286.433 135.579 285.805 137.666C284.94 140.544 283.783 142.926 282.278 144.643C280.434 146.747 278.125 147.773 275.372 147.493C274.963 147.451 274.665 147.086 274.707 146.677C274.749 146.267 275.114 145.969 275.522 146.011C279.723 146.438 282.601 143.154 284.381 137.236C284.982 135.236 285.406 133.085 285.682 130.933C285.77 130.255 285.836 129.62 285.885 129.043L285.908 128.745L285.935 128.36L285.948 128.137L285.951 128.077C285.968 127.681 286.291 127.37 286.682 127.364L286.726 127.364Z" fill="#121212"/>
<path fill-rule="evenodd" clip-rule="evenodd" d="M159.809 132.054H149.719C147.665 132.054 146 133.722 146 135.779V139.369C146 141.426 147.665 143.094 149.719 143.094H159.809C161.863 143.094 163.528 141.426 163.528 139.369V135.779C163.528 133.722 161.863 132.054 159.809 132.054ZM162.04 139.369C162.04 140.604 161.041 141.604 159.809 141.604H149.719C148.487 141.604 147.488 140.604 147.488 139.369V135.779C147.488 135.744 147.488 135.712 147.488 135.677H162.03C162.03 135.712 162.03 135.744 162.03 135.779L162.04 139.369Z" fill="#289976"/>
<path fill-rule="evenodd" clip-rule="evenodd" d="M182.256 132.054H172.165C170.111 132.054 168.445 133.722 168.445 135.779V139.369C168.445 141.426 170.111 143.094 172.165 143.094H182.256C184.311 143.094 185.976 141.426 185.976 139.369V135.779C185.976 133.722 184.311 132.054 182.256 132.054ZM184.488 139.369C184.488 140.604 183.489 141.604 182.256 141.604H172.165C170.932 141.604 169.933 140.604 169.933 139.369V135.779C169.933 135.744 169.933 135.712 169.933 135.677H184.488C184.488 135.712 184.488 135.744 184.488 135.779V139.369Z" fill="#289976"/>
<rect x="124.402" y="132.965" width="11.0737" height="8.94914" rx="4.47457" fill="#289976"/>
<path fill-rule="evenodd" clip-rule="evenodd" d="M105.193 133.675C110.868 133.558 116.249 133.959 121.14 134.699C121.407 134.74 121.669 134.781 121.926 134.822L122.433 134.906C122.517 134.92 122.6 134.934 122.682 134.948L123.169 135.032C123.249 135.047 123.329 135.061 123.408 135.075L123.874 135.161L124.326 135.248L124.764 135.334C124.836 135.349 124.907 135.363 124.978 135.378L125.4 135.466L125.784 135.549L126.114 135.623L126.389 135.688L126.559 135.729L126.684 135.761C127.679 136.018 128.277 137.034 128.02 138.03C127.768 139.006 126.789 139.6 125.814 139.382L125.534 139.313L125.236 139.244L125.024 139.196L124.677 139.12L124.427 139.067L124.027 138.985L123.613 138.903C123.542 138.889 123.472 138.876 123.4 138.862L122.965 138.78L122.515 138.699L122.052 138.619C121.974 138.605 121.895 138.592 121.816 138.579L121.333 138.499C121.088 138.46 120.838 138.421 120.584 138.382C115.892 137.672 110.72 137.286 105.27 137.399C98.3106 137.542 91.4635 138.494 84.9173 140.411L84.554 140.518C84.0619 140.665 83.5698 140.81 83.0776 140.951L82.3394 141.161C80.494 141.682 78.6503 142.164 76.8179 142.604L76.0855 142.778C67.793 144.726 59.7596 145.827 52.8863 145.9C42.6267 146.01 35.2877 143.878 32.0581 139.176C31.476 138.328 31.6902 137.169 32.5364 136.586C33.3646 136.015 34.4913 136.209 35.0846 137.012L35.1225 137.065C39.8481 143.945 60.1776 143.797 82.804 137.152L83.4904 136.949C90.4871 134.858 97.7873 133.828 105.193 133.675Z" fill="#121212"/>
<path fill-rule="evenodd" clip-rule="evenodd" d="M189.815 16.9224H163.378C162.2 16.9203 161.058 17.3334 160.154 18.0894L158.582 19.4005L165.577 19.336C165.542 19.5828 165.525 19.8317 165.525 20.0809V21.603C165.525 22.0772 165.713 22.5319 166.048 22.8672C166.383 23.2025 166.837 23.3909 167.31 23.3909H189.807C190.799 23.3909 191.605 21.9805 191.605 20.2423V20.0759C191.612 18.3303 190.809 16.9224 189.815 16.9224Z" fill="#121212"/>
<rect x="170.742" y="14.5239" width="11.2696" height="2.94" fill="#121212"/>
<path fill-rule="evenodd" clip-rule="evenodd" d="M190.48 0H162.593C160.949 0 159.617 1.33407 159.617 2.97973V11.544C159.617 13.1896 160.949 14.5237 162.593 14.5237H190.48C192.124 14.5237 193.456 13.1896 193.456 11.544V2.97973C193.456 1.33407 192.124 0 190.48 0V0ZM167.916 12.9494C168.327 12.9494 168.66 13.2829 168.66 13.6943C168.66 14.1057 168.327 14.4393 167.916 14.4393C166.488 14.4379 165.332 13.2788 165.332 11.8494V2.67429C165.332 1.24587 166.487 0.0871445 167.913 0.0844055C168.324 0.0844055 168.657 0.417923 168.657 0.829338C168.657 1.24075 168.324 1.57427 167.913 1.57427C167.308 1.57564 166.817 2.06773 166.817 2.67429V11.8618C166.824 12.4635 167.312 12.9481 167.913 12.9494H167.916ZM182.007 12.562C179.649 12.562 177.73 10.3024 177.73 7.52382C177.73 4.74522 179.651 2.48311 182.007 2.48311C184.363 2.48311 186.284 4.74274 186.284 7.51885C186.284 10.295 184.37 12.562 182.007 12.562Z" fill="#121212"/>
<path fill-rule="evenodd" clip-rule="evenodd" d="M182.008 3.97314C180.471 3.97314 179.219 5.56482 179.219 7.51902C179.219 9.47323 180.459 11.0674 182.008 11.0674C183.558 11.0674 184.798 9.47571 184.798 7.51902C184.798 5.56233 183.551 3.97314 182.008 3.97314Z" fill="#121212"/>
<ellipse cx="174.021" cy="7.52373" rx="1.49767" ry="1.82012" fill="#289976"/>
<path fill-rule="evenodd" clip-rule="evenodd" d="M455.927 146.009C456.338 146.009 456.671 146.343 456.671 146.754C456.671 147.151 456.361 147.475 455.971 147.498L455.927 147.499H1.00168C0.590854 147.499 0.257812 147.166 0.257812 146.754C0.257812 146.357 0.56749 146.033 0.957974 146.011L1.00168 146.009H455.927Z" fill="#121212"/>
</svg>
