<svg width="456" height="227" viewBox="0 0 456 227" fill="none" xmlns="http://www.w3.org/2000/svg">
<path fill-rule="evenodd" clip-rule="evenodd" d="M277.801 143.473H270.825C268.678 143.473 266.934 141.726 266.934 139.575V131L256.121 133.634L259.019 145.032C262.077 186.753 207.206 191.323 205.14 146.134L171.143 154.468V154.441L148.953 159.28L163.738 218.392L194.541 210.946C198.78 219.172 201.893 224.871 201.893 224.871H296.959L277.801 143.473Z" fill="#121212"/>
<path fill-rule="evenodd" clip-rule="evenodd" d="M37.2897 52.3441C45.5891 52.448 53.08 53.5259 59.829 55.4944C60.2558 55.6189 60.5011 56.0665 60.3768 56.4942C60.2525 56.9218 59.8058 57.1675 59.3789 57.043C53.0004 55.1825 45.932 54.1329 38.1104 53.9708L37.9094 53.9668L37.8687 54.1505C37.7243 54.8101 37.5795 55.5793 37.444 56.4497C36.3703 63.3503 36.5317 71.3503 38.7813 79.7148C38.897 80.1449 38.6428 80.5875 38.2135 80.7033C37.7842 80.8192 37.3425 80.5645 37.2268 80.1345C34.9404 71.6329 34.7515 63.5032 35.8148 56.4526L35.8533 56.2013C35.9939 55.2977 36.1448 54.4961 36.2962 53.8049L36.341 53.6036C36.3629 53.5067 36.3841 53.4156 36.4045 53.3302L36.4915 52.9812C36.4962 52.9634 36.5002 52.9484 36.5035 52.9363C36.6007 52.5828 36.9237 52.3395 37.2897 52.3441Z" fill="#289976"/>
<path fill-rule="evenodd" clip-rule="evenodd" d="M58.7591 56.0463C58.8373 55.6079 59.2555 55.316 59.6931 55.3943C60.1308 55.4726 60.4221 55.8916 60.344 56.33C58.8001 64.9867 58.9256 73.4079 60.5031 81.6547C60.5868 82.0921 60.3007 82.5147 59.864 82.5985C59.4274 82.6823 59.0056 82.3957 58.9219 81.9583C57.3082 73.5221 57.1797 64.9022 58.7591 56.0463Z" fill="#289976"/>
<path fill-rule="evenodd" clip-rule="evenodd" d="M84.5195 7.13208C84.7652 6.85395 85.1688 6.77994 85.4969 6.95283L85.6279 7.02343C85.731 7.07967 85.852 7.14691 85.9904 7.22518L86.2334 7.36381C86.5254 7.53179 86.8472 7.72165 87.1969 7.93347L87.3484 8.0256C88.8035 8.91299 90.4228 9.98332 92.1654 11.239C97.1394 14.823 102.112 19.1764 106.754 24.3192C109.64 27.5176 112.31 30.9299 114.718 34.5589C114.964 34.9298 114.863 35.4303 114.493 35.6769C114.123 35.9235 113.623 35.8227 113.377 35.4517C111.014 31.8911 108.394 28.5416 105.559 25.401C100.999 20.3479 96.1113 16.0689 91.2254 12.5484C89.5985 11.3761 88.0833 10.37 86.7154 9.52832L86.5113 9.40331C86.1643 9.19172 85.8451 9.00193 85.5552 8.83385L85.2982 8.68622L85.2953 8.68947C71.3203 24.6406 63.2899 40.4005 60.4296 55.8569L60.3436 56.3299C60.2654 56.7684 59.8473 57.0603 59.4096 56.982C58.972 56.9037 58.6806 56.4847 58.7588 56.0463C61.6241 39.9768 69.9464 23.6266 84.5195 7.13208Z" fill="#289976"/>
<path fill-rule="evenodd" clip-rule="evenodd" d="M156.728 69.2895C166.136 65.328 177.067 64.9487 189.6 68.777C189.965 68.8885 190.202 69.2412 190.167 69.6217L190.151 69.7844L190.112 70.1374L190.066 70.5158C190.013 70.9425 189.948 71.4205 189.869 71.9462C189.594 73.7776 189.214 75.8166 188.711 78.0115C187.277 84.2832 185.151 90.5558 182.196 96.4174C181.995 96.8149 181.511 96.9744 181.114 96.7736C180.717 96.5728 180.558 96.0878 180.758 95.6902C183.649 89.9557 185.735 83.8039 187.142 77.6512C187.635 75.4976 188.008 73.4986 188.277 71.7063L188.331 71.3394C188.374 71.0408 188.412 70.7604 188.446 70.4988L188.491 70.128L188.402 70.1015C176.649 66.6504 166.434 67.0327 157.624 70.6631L157.352 70.7764C149.918 73.9064 143.732 79.2501 138.686 86.1922C135.736 90.2525 133.358 94.6071 131.505 98.9615C130.857 100.485 130.321 101.898 129.89 103.165L129.794 103.452C129.701 103.732 129.619 103.988 129.547 104.221L129.454 104.528L129.394 104.736C129.276 105.165 128.833 105.417 128.404 105.299C127.975 105.181 127.724 104.737 127.842 104.307L127.91 104.07C127.929 104.007 127.95 103.938 127.972 103.863L128.047 103.621C128.139 103.328 128.245 103.002 128.366 102.646C128.809 101.342 129.359 99.8907 130.024 98.329C131.922 93.8691 134.357 89.4093 137.385 85.2428C142.592 78.0785 149 72.5436 156.728 69.2895Z" fill="#289976"/>
<path fill-rule="evenodd" clip-rule="evenodd" d="M143.2 10.3357C143.506 10.1507 143.898 10.191 144.161 10.4346L144.249 10.5173L144.423 10.6858C144.603 10.8622 144.807 11.0678 145.035 11.3024L145.133 11.4048C145.893 12.1942 146.737 13.1309 147.646 14.2121C150.236 17.295 152.824 20.9219 155.239 25.0704C157.816 29.497 160.043 34.2659 161.816 39.3635C161.962 39.784 161.74 40.2438 161.32 40.3904C160.901 40.5369 160.442 40.3148 160.295 39.8942C158.558 34.8978 156.374 30.2226 153.848 25.883C151.482 21.8176 148.947 18.2656 146.414 15.2508L146.085 14.8626C145.38 14.0362 144.719 13.3044 144.113 12.669L143.974 12.524C143.878 12.4243 143.786 12.3298 143.699 12.2407L143.499 12.039L143.196 12.2237C129.777 20.4254 119.199 29.6011 111.23 39.6046L110.984 39.9143C103.769 49.0468 98.8174 58.7379 95.8747 68.8334C95.7501 69.2609 95.3032 69.5063 94.8764 69.3814C94.4497 69.2566 94.2047 68.8088 94.3294 68.3813C100.772 46.278 116.402 26.4927 143.2 10.3357Z" fill="#289976"/>
<path fill-rule="evenodd" clip-rule="evenodd" d="M128.699 44.3292C138.335 55.9643 143.882 67.0516 145.829 77.5734C145.91 78.0114 145.622 78.4322 145.185 78.5134C144.747 78.5946 144.327 78.3054 144.246 77.8674C142.39 67.8369 137.145 57.2258 128.024 46.0443L127.856 45.8401L127.554 45.9859C127.335 46.092 127.101 46.2072 126.851 46.3314L126.545 46.4848L126.066 46.7269C124.695 47.4255 123.19 48.2324 121.581 49.144C116.444 52.0554 111.307 55.4275 106.515 59.2171C96.7896 66.9096 89.7677 75.3013 86.5992 84.222C82.6928 95.2204 84.852 106.505 94.2772 118.043C94.5588 118.388 94.5081 118.896 94.1641 119.178C93.82 119.46 93.3129 119.409 93.0313 119.065C83.2554 107.098 80.9832 95.2224 85.0825 83.6813C88.3696 74.4266 95.5757 65.8148 105.518 57.9512C110.379 54.1061 115.584 50.6897 120.789 47.7402L121.36 47.4185C122.965 46.5196 124.463 45.7266 125.823 45.0431L126.135 44.8868C126.441 44.7347 126.724 44.5957 126.985 44.4699L127.322 44.3085L127.747 44.1097C128.078 43.9595 128.468 44.0494 128.699 44.3292Z" fill="#289976"/>
<path fill-rule="evenodd" clip-rule="evenodd" d="M37.961 79.6052C56.035 78.0111 72.2423 83.3119 86.4981 93.7116C91.9773 97.7087 96.9464 102.31 101.4 107.296C104.743 111.04 107.555 114.723 109.833 118.132C110.08 118.502 109.981 119.003 109.611 119.251C109.242 119.498 108.742 119.399 108.495 119.029C106.257 115.679 103.491 112.056 100.2 108.372C95.8189 103.467 90.9325 98.9418 85.5504 95.0154C71.5913 84.8321 55.7604 79.6544 38.1022 81.2119C37.6593 81.2509 37.2687 80.9229 37.2297 80.4793C37.1907 80.0356 37.5181 79.6443 37.961 79.6052Z" fill="#289976"/>
<path fill-rule="evenodd" clip-rule="evenodd" d="M37.9613 79.6051C38.4043 79.5668 38.7943 79.8955 38.8325 80.3392C38.8708 80.783 38.5427 81.1737 38.0998 81.212C33.2004 81.6356 28.1163 82.6157 22.8547 84.1624L22.4867 84.2715L22.6401 84.5896C22.7052 84.7235 22.7736 84.8624 22.8451 85.0061L23.0691 85.452C23.8872 87.0638 24.8832 88.8617 26.0611 90.7993C29.4291 96.3391 33.5764 101.88 38.5356 107.05C43.3318 112.05 48.6476 116.438 54.498 120.044C54.8767 120.278 54.9947 120.774 54.7618 121.154C54.5288 121.533 54.033 121.651 53.6544 121.418C47.6825 117.737 42.2618 113.262 37.3748 108.168C32.3289 102.907 28.112 97.2734 24.6861 91.6383C23.4862 89.6645 22.4704 87.8306 21.6341 86.1831L21.4783 85.874C21.3015 85.521 21.1421 85.1943 21.0001 84.8955L20.8825 84.6462C20.8387 84.5524 20.7985 84.4656 20.7622 84.386L20.6358 84.1045L20.6291 84.0893C20.4386 83.6486 20.6723 83.1399 21.1303 82.9982C26.9444 81.1997 32.5581 80.0722 37.9613 79.6051Z" fill="#289976"/>
<path fill-rule="evenodd" clip-rule="evenodd" d="M170.661 117.72C173.223 117.72 175.309 119.781 175.356 122.336L175.357 122.425V136.645C175.357 139.212 173.3 141.302 170.749 141.349L170.661 141.349L164.381 141.349L160.364 159.028C160.269 159.447 159.865 159.715 159.447 159.645L159.401 159.636C158.983 159.541 158.716 159.135 158.785 158.717L158.795 158.671L162.954 140.364C163.033 140.013 163.335 139.759 163.69 139.738L163.738 139.737H170.661C172.337 139.737 173.704 138.393 173.746 136.724L173.747 136.645V122.425C173.747 120.746 172.405 119.376 170.74 119.334L170.661 119.333H156.36C155.915 119.333 155.555 118.972 155.555 118.527C155.555 118.097 155.89 117.746 156.312 117.722L156.36 117.72H170.661Z" fill="#121212"/>
<path fill-rule="evenodd" clip-rule="evenodd" d="M119.252 117.747C119.697 117.747 120.057 118.108 120.057 118.554C120.057 118.983 119.722 119.334 119.3 119.359L119.252 119.36H57.4847C55.8089 119.36 54.4416 120.704 54.4 122.373L54.399 122.452V136.672C54.399 138.351 55.7404 139.721 57.4064 139.762L57.4847 139.763H63.9512C64.3106 139.763 64.6243 140.002 64.7239 140.344L64.7361 140.391L84.0284 225.283C84.1271 225.718 83.8557 226.15 83.4223 226.249C83.0043 226.344 82.5882 226.095 82.4705 225.687L82.4587 225.641L63.3089 141.376H57.4847C54.923 141.376 52.837 139.316 52.7899 136.76L52.7891 136.672V122.452C52.7891 119.885 54.846 117.795 57.3965 117.748L57.4847 117.747H119.252Z" fill="#121212"/>
<path fill-rule="evenodd" clip-rule="evenodd" d="M171.466 154.508L171.516 154.537L241.87 198.65C242.488 199.037 242.315 199.982 241.6 200.124L239.049 200.64C238.133 200.826 237.125 201.033 236.03 201.259L233.049 201.879C229.417 202.638 225.493 203.474 221.337 204.377C206.499 207.601 191.662 211.039 177.769 214.557L176.754 214.815C162.949 218.326 150.842 221.729 140.911 224.956L139.912 225.283C139.086 225.554 138.277 225.824 137.485 226.092C137.064 226.234 136.607 226.008 136.464 225.586C136.322 225.164 136.548 224.706 136.969 224.564L137.934 224.239C138.744 223.968 139.571 223.696 140.414 223.422L141.138 223.188C150.969 220.018 162.855 216.686 176.358 213.251C190.224 209.725 205.055 206.275 219.908 203.037L221.989 202.585C226.277 201.656 230.309 200.801 234.016 200.03L238.023 199.203L239.302 198.942L170.945 156.081L169.964 156.311C169.541 156.41 169.078 156.52 168.578 156.64L167.643 156.865C165.744 157.325 163.667 157.839 161.45 158.404C154.062 160.287 146.631 162.338 139.636 164.486C139.211 164.616 138.761 164.377 138.631 163.951C138.501 163.525 138.74 163.074 139.165 162.944C145.906 160.874 153.046 158.895 160.164 157.069L161.053 156.841C163.4 156.243 165.591 155.701 167.581 155.221L169.269 154.818L170.911 154.434C171.099 154.391 171.296 154.418 171.466 154.508Z" fill="#121212"/>
<path fill-rule="evenodd" clip-rule="evenodd" d="M143.712 92.3037C148.243 90.8101 152.821 90.9748 157.44 92.9768L160.857 94.4892C171.534 99.2255 177.002 101.904 180.723 104.495L180.835 104.574C183.287 106.297 184.617 107.812 184.702 109.303C184.801 111.033 183.295 112.273 180.349 113.136L180.22 113.173C176.353 114.276 170.405 117.618 162.984 122.655C161.354 123.762 159.67 124.94 157.941 126.179C153.817 129.133 149.628 132.3 145.592 135.468L144.855 136.047C143.969 136.745 143.135 137.409 142.361 138.03L141.481 138.739L140.612 139.444L140.619 140.516L140.624 141.676C140.645 147.718 140.605 154.518 140.458 161.041L140.424 162.49C140.229 170.253 139.898 176.327 139.403 180.12L139.368 180.38C138.433 187.417 136.571 195.004 134.418 201.004C134.267 201.423 133.806 201.641 133.388 201.49C132.969 201.339 132.752 200.877 132.903 200.458C134.98 194.67 136.787 187.356 137.723 180.536L137.807 179.912C138.309 176.059 138.644 169.733 138.834 161.634L138.863 160.374C138.997 154.06 139.035 147.516 139.014 141.681L139 139.072C138.997 138.828 139.105 138.596 139.293 138.441L140.223 137.684L140.732 137.272C141.814 136.399 143.028 135.432 144.35 134.393L144.599 134.198C148.652 131.017 152.86 127.837 157.004 124.867C158.744 123.62 160.439 122.435 162.081 121.32L162.757 120.863C169.851 116.088 175.578 112.886 179.531 111.695L180.013 111.554C182.23 110.889 183.137 110.132 183.095 109.395C183.047 108.564 181.981 107.349 179.911 105.894L179.692 105.742C176.237 103.358 171.106 100.821 161.461 96.5224L156.973 94.5328C152.661 92.6182 148.432 92.4456 144.215 93.836C138.99 95.5543 135.515 97.8909 131.695 102.351L131.553 102.517C128.148 106.53 125.006 111.293 116.967 124.377L116.207 125.616L116.187 125.646C101.747 146.957 92.0735 170.989 88.9955 191.332C86.1122 210.388 89.5553 223.207 97.9211 224.64C98.3594 224.716 98.6538 225.132 98.5789 225.571C98.5039 226.01 98.0879 226.305 97.6497 226.23C88.0746 224.589 84.4033 210.921 87.4038 191.091C90.4875 170.71 100.088 146.731 114.42 125.386L114.848 124.751L116.075 122.754C123.731 110.306 126.85 105.59 130.219 101.599L130.327 101.472C134.394 96.6793 138.14 94.1364 143.712 92.3037Z" fill="#121212"/>
<path fill-rule="evenodd" clip-rule="evenodd" d="M193.152 83.6612L193.2 83.6629C193.643 83.6922 193.979 84.0763 193.95 84.5207C193.225 95.5338 194.54 110.371 196.89 123.003C196.971 123.441 196.683 123.862 196.246 123.943C195.809 124.025 195.388 123.736 195.307 123.298C192.935 110.545 191.608 95.5809 192.343 84.4145C192.372 83.986 192.729 83.6578 193.152 83.6612Z" fill="#121212"/>
<path fill-rule="evenodd" clip-rule="evenodd" d="M258.782 98.4017C258.821 97.9581 259.212 97.6304 259.655 97.6697C262.147 97.8911 264.527 98.6014 266.402 100.008C269.017 101.97 270.252 105.031 269.692 109.252C269.185 113.035 267.292 115.397 264.35 116.441C262.127 117.23 259.467 117.22 256.636 116.656C256.2 116.57 255.917 116.145 256.004 115.708C256.091 115.271 256.514 114.988 256.95 115.074C259.522 115.587 261.911 115.595 263.813 114.92C266.182 114.08 267.67 112.224 268.097 109.039C268.58 105.389 267.579 102.906 265.437 101.299C263.843 100.103 261.733 99.4736 259.513 99.2763C259.07 99.2369 258.743 98.8454 258.782 98.4017Z" fill="#121212"/>
<path fill-rule="evenodd" clip-rule="evenodd" d="M254.449 127.073C254.864 126.967 255.287 127.206 255.415 127.61L255.428 127.656L259.801 144.86C259.813 144.906 259.821 144.953 259.824 145C260.544 154.821 258.136 163.142 253.178 169.247C248.634 174.843 242.15 178.262 235.149 178.923C228.128 179.586 221.131 177.427 215.641 172.727C209.637 167.587 205.732 159.73 204.611 149.719C204.561 149.276 204.879 148.877 205.321 148.828C205.763 148.778 206.161 149.096 206.21 149.539C207.288 159.158 211.005 166.637 216.687 171.501C221.842 175.914 228.406 177.94 234.998 177.317C241.573 176.696 247.66 173.486 251.929 168.229C256.572 162.512 258.863 154.699 258.238 145.4L258.223 145.189L253.867 128.054C253.762 127.638 254 127.215 254.403 127.086L254.449 127.073Z" fill="#121212"/>
<path fill-rule="evenodd" clip-rule="evenodd" d="M246.984 99.5238C246.562 99.4901 246.186 99.7895 246.124 100.209L245.584 103.808L245.322 105.542C245.03 107.464 244.738 109.367 244.456 111.184L244.097 113.48C243.742 115.733 243.431 117.658 243.173 119.189L242.977 120.333L242.616 120.249C242.417 120.203 242.207 120.156 241.985 120.108L241.816 120.071C240.194 119.721 238.319 119.371 236.212 119.044C228.223 117.807 219.271 117.241 209.717 117.721L209.065 117.78L208.374 117.847C207.965 117.887 207.529 117.932 207.072 117.982C205.275 118.176 203.477 118.401 201.778 118.655L201.318 118.725C198.352 119.183 196.014 119.685 194.507 120.243C194.159 120.372 193.944 120.721 193.986 121.09L194.027 121.425L194.069 121.741C194.098 121.958 194.132 122.193 194.17 122.447L194.193 122.601C194.375 123.792 194.609 125.118 194.903 126.544C195.741 130.623 196.886 134.703 198.384 138.517C200.363 143.557 202.813 147.749 205.801 150.811C210.349 155.471 217.158 157.346 224.839 156.618C231.57 155.98 238.416 153.332 242.811 149.772C250.44 143.593 252.308 140.709 254.115 133.163L254.21 132.761C254.719 130.564 255.454 126.542 256.362 121.104L256.674 119.221L256.88 117.962C257.436 114.55 258.011 110.908 258.575 107.253L259.022 104.338L259.469 101.388C259.538 100.926 259.202 100.502 258.737 100.465L246.984 99.5238ZM247.605 101.191L257.748 102.004L257.135 106.032L256.773 108.375C256.384 110.88 255.991 113.366 255.605 115.763L255.154 118.544L254.812 120.613C253.868 126.275 253.109 130.424 252.604 132.561L252.466 133.134C251.622 136.61 250.943 138.482 249.737 140.41L249.672 140.513C248.184 142.859 245.858 145.231 241.799 148.518C237.658 151.872 231.113 154.403 224.688 155.012C217.452 155.698 211.121 153.955 206.953 149.683C204.135 146.796 201.789 142.782 199.882 137.927C198.421 134.207 197.301 130.213 196.479 126.219C196.192 124.82 195.962 123.522 195.785 122.358L195.72 121.921L195.668 121.552L195.77 121.52C197.159 121.096 199.143 120.692 201.563 120.319C203.218 120.063 204.985 119.836 206.76 119.638L207.245 119.585C207.773 119.528 208.271 119.477 208.733 119.432L209.484 119.361L209.812 119.331L209.798 119.332C219.235 118.857 228.08 119.416 235.966 120.638C237.942 120.944 239.709 121.271 241.248 121.599L241.477 121.648C241.977 121.756 242.419 121.857 242.8 121.948L243.229 122.054L243.411 122.101C243.866 122.224 244.328 121.93 244.412 121.466L244.549 120.695C244.817 119.16 245.161 117.057 245.567 114.493L245.962 111.975L246.217 110.331C246.417 109.035 246.621 107.705 246.826 106.361L247.503 101.876L247.605 101.191Z" fill="#121212"/>
<path fill-rule="evenodd" clip-rule="evenodd" d="M258.054 104.817C258.054 104.817 263.662 93.2041 265.298 83.6342C266.855 74.6557 262.132 65.6234 253.707 62.2095C246.65 59.3331 244.342 60.274 244.342 60.274C244.342 60.274 248.528 52.8009 237.634 41.8062C233.797 37.9353 228.485 35.7847 223.038 35.9191C209.702 36.2686 205.543 47.5589 205.543 47.5589C205.543 47.5589 191.322 21.2417 162.021 36.7256C159.07 38.2847 155.716 42.6396 154.133 45.5966C144.42 63.4191 176.216 84.6557 192.798 86.3761C211.017 88.2578 222.447 85.9998 228.002 81.1611C223.843 84.0643 231.302 110.758 258.054 104.817Z" fill="#121212"/>
<path fill-rule="evenodd" clip-rule="evenodd" d="M208.79 109.926C209.364 109.955 209.81 110.43 209.81 111L209.809 111.053L209.027 126.781L213.504 125.327C214.05 125.149 214.635 125.434 214.837 125.965L214.856 126.018C215.033 126.565 214.749 127.151 214.218 127.354L214.166 127.372L208.209 129.308C207.51 129.535 206.801 129.008 206.805 128.281L206.806 128.231L207.665 110.946C207.693 110.371 208.168 109.924 208.736 109.925L208.79 109.926Z" fill="#121212"/>
<path fill-rule="evenodd" clip-rule="evenodd" d="M218.894 95.8359C221.608 95.248 223.993 95.8248 225.97 97.1403C226.471 97.4738 226.908 97.8317 227.279 98.1921L227.389 98.3003C227.562 98.4745 227.689 98.6174 227.768 98.7167C228.137 99.1811 228.061 99.8576 227.597 100.228C227.134 100.598 226.459 100.521 226.089 100.057C226.05 100.007 225.948 99.8938 225.787 99.7374C225.505 99.4646 225.169 99.1893 224.782 98.9318C223.26 97.9188 221.453 97.4818 219.347 97.9379C218.768 98.0634 218.197 97.6946 218.071 97.1141C217.946 96.5337 218.314 95.9614 218.894 95.8359Z" fill="#121212"/>
<path fill-rule="evenodd" clip-rule="evenodd" d="M201.106 91.7837C202.147 91.5704 203.223 91.6274 204.255 91.8467L204.422 91.8837C204.688 91.9453 204.896 92.0058 205.032 92.0526C205.593 92.2451 205.892 92.8566 205.7 93.4184C205.513 93.9626 204.935 94.2605 204.389 94.1036L204.273 94.0673C204.257 94.0624 204.238 94.0568 204.216 94.0505C204.098 94.0169 203.961 93.9827 203.81 93.9504C203.042 93.7873 202.246 93.7452 201.537 93.8906C200.529 94.0971 199.817 94.6502 199.407 95.7152C199.193 96.2692 198.572 96.5448 198.019 96.3309C197.466 96.117 197.191 95.4944 197.404 94.9404C198.092 93.1576 199.414 92.1307 201.106 91.7837Z" fill="#121212"/>
<path fill-rule="evenodd" clip-rule="evenodd" d="M228.241 131.591C227.302 130.301 218.152 136.726 221.72 137.317C225.289 137.882 230.253 134.36 228.241 131.591Z" fill="#121212"/>
<path fill-rule="evenodd" clip-rule="evenodd" d="M189.874 130.409L224.622 118.634C224.622 118.634 229.264 116.86 229.103 110.812C228.942 104.763 221.348 102.505 221.348 102.505L184.293 97.2634L189.874 130.409Z" fill="#289976"/>
<path fill-rule="evenodd" clip-rule="evenodd" d="M152.683 130.409L187.43 118.634C187.43 118.634 192.072 116.86 191.911 110.812C191.75 104.763 184.157 102.505 184.157 102.505L166.233 103.688L147.102 97.2634L152.683 130.409Z" fill="#289976"/>
<path fill-rule="evenodd" clip-rule="evenodd" d="M183.943 131.484C193.412 131.484 201.088 123.793 201.088 114.306C201.088 104.82 193.412 97.1289 183.943 97.1289C174.473 97.1289 166.797 104.82 166.797 114.306C166.797 123.793 174.473 131.484 183.943 131.484Z" fill="#121212"/>
<path fill-rule="evenodd" clip-rule="evenodd" d="M146.486 131.726C155.955 131.726 163.631 124.035 163.631 114.548C163.631 105.061 155.955 97.3708 146.486 97.3708C137.016 97.3708 129.34 105.061 129.34 114.548C129.34 124.035 137.016 131.726 146.486 131.726Z" fill="#121212"/>
<path fill-rule="evenodd" clip-rule="evenodd" d="M170.103 85.5671L170.443 85.4957C174.577 84.6392 178.707 84.2508 180.388 84.5027C182.482 84.8082 182.896 86.8004 181.509 88.7263C180.151 90.611 177.323 92.3761 173.424 93.5719C172.999 93.7023 172.549 93.4627 172.419 93.0369C172.289 92.611 172.528 92.16 172.953 92.0296C176.542 90.9287 179.076 89.3475 180.203 87.7825C180.951 86.7445 180.862 86.2222 180.195 86.105L180.153 86.0983C178.678 85.8773 174.62 86.265 170.599 87.1105L170.438 87.1446C165.265 88.2487 160.719 89.9305 157.716 92.061C157.353 92.3184 156.85 92.2325 156.593 91.869C156.336 91.5055 156.422 91.0022 156.785 90.7448C159.999 88.4645 164.734 86.7128 170.103 85.5671Z" fill="#121212"/>
<path fill-rule="evenodd" clip-rule="evenodd" d="M161.375 91.0229C165.26 90.0687 170.625 91.0337 176.578 93.343L176.786 93.4241C181.353 95.2158 185.946 97.7408 187.453 99.1562L187.504 99.2046C188.431 100.085 188.542 101.26 187.76 102.188C187.086 102.987 185.829 103.508 184.204 103.68C180.475 104.074 175.309 102.684 169.49 99.3377L169.293 99.2242L169.115 99.1096L168.968 99.0175C168.89 98.9694 168.805 98.9185 168.715 98.8652C168.281 98.6098 167.803 98.3541 167.296 98.1158C166.236 97.6177 165.197 97.2655 164.247 97.1217C163.774 97.0502 163.334 97.0324 162.932 97.0712C162.49 97.114 162.096 96.7893 162.054 96.346C162.011 95.9026 162.335 95.5086 162.778 95.4658C163.319 95.4134 163.89 95.4365 164.487 95.5269C165.611 95.697 166.79 96.0968 167.979 96.6555C168.535 96.9163 169.056 97.1954 169.531 97.4749L169.731 97.5948C169.876 97.6825 169.993 97.7565 170.08 97.8133L170.12 97.8397L170.29 97.9384C175.774 101.092 180.567 102.401 183.92 102.088L184.035 102.076C185.285 101.944 186.166 101.578 186.53 101.148C186.734 100.905 186.725 100.703 186.431 100.409L186.391 100.37C185.119 99.1392 180.637 96.6673 176.199 94.926C170.446 92.6693 165.287 91.7229 161.759 92.5894C161.327 92.6954 160.891 92.4307 160.785 91.9982C160.679 91.5656 160.943 91.1289 161.375 91.0229Z" fill="#121212"/>
<path fill-rule="evenodd" clip-rule="evenodd" d="M153.266 90.9645C157.156 90.1123 162.478 91.1128 168.348 93.4062L168.558 93.4887C173.078 95.2743 177.596 97.7617 179.083 99.1563L179.133 99.2045C180.061 100.085 180.171 101.26 179.389 102.188C178.716 102.987 177.459 103.508 175.833 103.68C172.105 104.074 166.939 102.684 161.119 99.3377L160.923 99.2241L160.744 99.1095L160.597 99.0174C160.519 98.9694 160.435 98.9185 160.344 98.8651C159.911 98.6098 159.433 98.354 158.925 98.1157C157.865 97.6177 156.827 97.2655 155.876 97.1217C155.404 97.0501 154.964 97.0323 154.562 97.0712C154.119 97.114 153.726 96.7893 153.683 96.3459C153.64 95.9026 153.965 95.5085 154.407 95.4657C154.949 95.4134 155.52 95.4365 156.117 95.5269C157.241 95.697 158.42 96.0967 159.609 96.6554C160.164 96.9163 160.686 97.1954 161.16 97.4748L161.361 97.5948C161.506 97.6825 161.623 97.7565 161.709 97.8133L161.749 97.8397L161.92 97.9384C167.404 101.092 172.197 102.401 175.549 102.087L175.664 102.076C176.915 101.944 177.796 101.578 178.159 101.148C178.364 100.905 178.354 100.703 178.06 100.409L178.021 100.37C176.769 99.1594 172.36 96.7245 167.967 94.9891L167.558 94.8291C162.04 92.6985 157.073 91.7815 153.61 92.5402C153.176 92.6353 152.747 92.3597 152.652 91.9246C152.557 91.4895 152.832 91.0596 153.266 90.9645Z" fill="#121212"/>
<path fill-rule="evenodd" clip-rule="evenodd" d="M144.289 92.1273C148.043 90.3241 153.764 91.0168 160.431 93.4754L160.752 93.5951C165.628 95.4304 170.68 98.1672 172.238 99.6615C173.165 100.542 173.276 101.717 172.494 102.645C171.82 103.444 170.563 103.965 168.938 104.137C165.209 104.531 160.043 103.141 154.223 99.7947L154.027 99.6811L153.849 99.5665L153.702 99.4745C153.623 99.4264 153.539 99.3755 153.448 99.3221C153.015 99.0668 152.537 98.811 152.03 98.5728C150.97 98.0747 149.931 97.7225 148.981 97.5787C148.508 97.5071 148.068 97.4893 147.666 97.5282C147.224 97.571 146.83 97.2463 146.787 96.8029C146.745 96.3596 147.069 95.9655 147.511 95.9227C148.053 95.8704 148.624 95.8935 149.221 95.9839C150.345 96.154 151.524 96.5537 152.713 97.1124C153.269 97.3733 153.79 97.6524 154.265 97.9318L154.465 98.0518C154.61 98.1395 154.727 98.2135 154.814 98.2703L154.854 98.2967L155.024 98.3954C160.508 101.549 165.301 102.858 168.654 102.544L168.769 102.533C170.019 102.401 170.9 102.035 171.264 101.605C171.477 101.351 171.457 101.143 171.127 100.829L171.032 100.741C169.523 99.3812 164.664 96.7734 160.029 95.0462L159.875 94.989C153.585 92.6695 148.233 92.0215 144.985 93.5817C144.584 93.7742 144.104 93.6048 143.911 93.2031C143.719 92.8015 143.888 92.3199 144.289 92.1273Z" fill="#121212"/>
<path fill-rule="evenodd" clip-rule="evenodd" d="M284.981 13.0299C292.482 11.6225 299.812 16.1023 301.457 23.0906L301.505 23.3031L306.818 47.9805C306.912 48.4159 306.635 48.845 306.201 48.9389C305.782 49.0294 305.368 48.7753 305.255 48.3666L305.244 48.3206L299.932 23.6447C298.577 17.4121 292.02 13.3502 285.277 14.6153C278.6 15.868 274.271 21.8239 275.493 27.9817L275.532 28.1684L283.474 64.9964C283.568 65.4317 283.292 65.8609 282.857 65.9549C282.438 66.0456 282.025 65.7916 281.912 65.383L281.9 65.337L273.958 28.5096C272.413 21.3711 277.37 14.4578 284.981 13.0299Z" fill="#121212"/>
<path fill-rule="evenodd" clip-rule="evenodd" d="M314.831 13.2056C315.06 5.94423 321.563 0.234952 329.29 0.462635C336.969 0.68806 343.031 6.60009 342.929 13.7589L342.065 49.9439C342.055 50.3892 341.686 50.7415 341.241 50.7309C340.813 50.7206 340.47 50.3766 340.456 49.9528L340.456 49.9054L341.315 13.9314C341.515 7.58928 336.135 2.27718 329.243 2.07484C322.447 1.87461 316.756 6.81034 316.448 13.0668L316.44 13.2568L315.367 46.9396C315.353 47.3848 314.981 47.7341 314.537 47.7199C314.108 47.7062 313.769 47.3595 313.758 46.9356L313.758 46.8882L314.831 13.2056Z" fill="#121212"/>
<path fill-rule="evenodd" clip-rule="evenodd" d="M354.371 23.2478C355.916 16.1397 363.318 11.5546 370.895 12.9762C378.423 14.3885 383.365 21.1996 381.962 28.2418L381.918 28.4553L374.378 63.4284C374.284 63.8637 373.856 64.1404 373.421 64.0464C373.002 63.9557 372.731 63.5534 372.796 63.1345L372.804 63.0879L380.345 28.1134C381.693 21.9102 377.336 15.8255 370.599 14.5615C363.923 13.3091 357.43 17.2776 355.981 23.4265L355.939 23.6135L349.633 49.0973C349.526 49.5296 349.09 49.7932 348.658 49.686C348.242 49.5827 347.983 49.1724 348.061 48.7556L348.071 48.7092L354.371 23.2478Z" fill="#121212"/>
<path fill-rule="evenodd" clip-rule="evenodd" d="M387.832 48.3062C391.31 41.8229 399.713 39.204 406.642 42.4186C413.534 45.6164 416.381 53.39 413.046 59.8683L412.943 60.0642L379.885 121.731C379.675 122.123 379.187 122.271 378.795 122.06C378.418 121.857 378.268 121.396 378.445 121.012L378.467 120.968L411.524 59.3009C414.573 53.6172 412.101 46.7292 405.965 43.8822C399.859 41.049 392.467 43.3052 389.343 48.899L389.25 49.0695L380.851 64.7415C380.641 65.134 380.153 65.2813 379.761 65.0706C379.384 64.8677 379.234 64.4069 379.411 64.0226L379.433 63.9786L387.832 48.3062Z" fill="#121212"/>
<path fill-rule="evenodd" clip-rule="evenodd" d="M269.022 107.037C269.399 106.834 269.866 106.963 270.088 107.323L270.112 107.366L277.357 120.887C277.567 121.28 277.42 121.769 277.028 121.979C276.651 122.182 276.184 122.053 275.963 121.693L275.938 121.65L268.694 108.129C268.483 107.736 268.63 107.247 269.022 107.037Z" fill="#121212"/>
<path fill-rule="evenodd" clip-rule="evenodd" d="M249.236 42.4186C256.095 39.2361 264.401 41.7711 267.941 48.1131L268.047 48.3065L277.975 66.828C278.185 67.2204 278.038 67.7093 277.646 67.92C277.269 68.1229 276.803 67.9939 276.581 67.6337L276.556 67.5911L266.628 49.0698C263.561 43.3513 256.081 41.0203 249.913 43.8822C243.838 46.7007 241.354 53.4798 244.264 59.13L244.354 59.3009L265.766 99.2203C265.976 99.6126 265.829 100.102 265.438 100.312C265.061 100.515 264.594 100.386 264.372 100.026L264.348 99.9837L242.936 60.0644C239.44 53.5475 242.274 45.6487 249.236 42.4186Z" fill="#121212"/>
<path fill-rule="evenodd" clip-rule="evenodd" d="M310.249 45.7375C317.45 44.8251 324.038 50.8597 325.099 59.1773L325.13 59.4301L328.093 85.4666L333.766 59.2985C335.507 51.1676 342.605 46.3543 349.671 48.5526L349.885 48.6213C356.887 50.9409 361.122 59.2822 359.486 67.3511L359.435 67.5956L354.262 91.4924L363.818 70.4782C367.172 63.0805 375.104 60.3922 381.565 64.4463L381.76 64.5712C388.104 68.7054 390.563 77.8922 387.358 85.2511L387.259 85.4736L370.785 121.764C370.6 122.169 370.123 122.349 369.719 122.164C369.328 121.986 369.148 121.535 369.301 121.14L369.319 121.096L385.794 84.8062C388.825 78.1209 386.607 69.6538 380.882 65.9233C375.292 62.2806 368.414 64.5023 365.375 70.9494L365.284 71.1461L352.619 98.9956C352.226 99.8597 350.94 99.4489 351.091 98.5378L351.1 98.4903L357.862 67.2529C359.466 59.8804 355.633 52.2241 349.38 50.1527C343.266 48.1276 337.034 52.232 335.388 59.4201L335.34 59.6388L328.631 90.5797C328.442 91.4543 327.196 91.4083 327.052 90.5503L327.045 90.4999L323.53 59.6125C322.667 52.0046 316.771 46.5368 310.451 47.3376C304.193 48.1306 299.723 54.7895 300.473 62.2931L300.498 62.5207L304.147 94.3218C304.253 95.2452 302.984 95.5759 302.615 94.7506L302.597 94.7053L294.601 74.0334C291.891 67.0306 285.011 63.8054 279.241 66.7456C273.457 69.6932 270.862 77.6951 273.456 84.6902L273.536 84.9019L287.542 121.085C287.703 121.5 287.497 121.967 287.083 122.128C286.683 122.283 286.235 122.097 286.06 121.712L286.041 121.668L272.035 85.485C269.023 77.7025 271.894 68.6797 278.511 65.308C285.116 61.9425 292.908 65.5308 296.009 73.2163L296.102 73.4505L301.831 88.2617L298.898 62.7042C297.949 54.3657 302.892 46.8097 310.032 45.7671L310.249 45.7375Z" fill="#FA742E"/>
<path fill-rule="evenodd" clip-rule="evenodd" d="M384.297 120.597C386.859 120.597 388.945 122.657 388.992 125.213L388.993 125.301V139.575C388.993 142.142 386.936 144.231 384.385 144.279L384.297 144.279H378.414L367.452 190.889C367.354 191.307 366.947 191.572 366.53 191.499L366.484 191.489C366.067 191.391 365.802 190.983 365.875 190.566L365.885 190.519L376.993 143.288C377.075 142.94 377.376 142.689 377.729 142.668L377.777 142.667H384.297C385.973 142.667 387.34 141.323 387.382 139.654L387.383 139.575V125.301C387.383 123.622 386.041 122.252 384.375 122.211L384.297 122.21H270.797C269.121 122.21 267.754 123.554 267.712 125.223L267.711 125.301V139.575C267.711 141.254 269.053 142.624 270.719 142.666L270.797 142.667H277.774C278.131 142.667 278.443 142.902 278.545 143.241L278.557 143.288L297.849 225.331C297.951 225.765 297.683 226.199 297.25 226.301C296.833 226.399 296.415 226.153 296.295 225.747L296.282 225.701L277.136 144.279H270.797C268.235 144.279 266.149 142.219 266.102 139.663L266.102 139.575V125.301C266.102 122.735 268.158 120.645 270.709 120.597L270.797 120.597H384.297Z" fill="#121212"/>
<path fill-rule="evenodd" clip-rule="evenodd" d="M346.309 177.92C348.118 177.145 349.44 177.359 350.732 178.509C351.03 178.774 351.323 179.079 351.699 179.508L351.934 179.78C352.154 180.039 352.843 180.847 353.095 181.134C354.23 182.42 355.307 183.443 356.668 184.44C356.858 184.578 357.051 184.715 357.247 184.849L357.505 185.023C358.98 186.01 360.191 186.681 362.873 188.063L363.882 188.582C365.176 189.252 365.952 189.673 366.832 190.189C370.172 192.149 372.829 194.37 375.454 197.646C375.732 197.993 375.677 198.501 375.33 198.779C374.983 199.058 374.477 199.003 374.198 198.655C371.754 195.605 369.301 193.533 366.216 191.698L365.849 191.482C365.035 191.009 364.272 190.599 363.007 189.945L361.673 189.258C359.105 187.929 357.92 187.255 356.342 186.183C356.13 186.038 355.922 185.891 355.719 185.742C354.317 184.716 353.196 183.665 352.046 182.378L351.771 182.067C351.39 181.628 350.645 180.751 350.648 180.754L350.497 180.581C350.159 180.195 349.904 179.929 349.663 179.715C348.837 178.98 348.178 178.873 346.945 179.401C346.015 179.804 345.815 180.751 346.365 182.463C346.892 184.101 348.071 186.199 349.781 188.657C350.036 189.023 349.946 189.525 349.581 189.78C349.216 190.035 348.715 189.945 348.461 189.579C346.667 187.001 345.42 184.783 344.833 182.958C344.06 180.552 344.445 178.727 346.309 177.92Z" fill="#121212"/>
<path fill-rule="evenodd" clip-rule="evenodd" d="M319.889 183.071L320.181 183.059C323.061 182.96 327.65 183.185 332.173 183.814C338.894 184.748 344.936 186.446 349.717 189.055C350.108 189.268 350.252 189.758 350.039 190.149C349.827 190.54 349.338 190.685 348.947 190.472C344.436 188.01 338.685 186.374 332.268 185.456L331.952 185.411C327.37 184.774 322.719 184.56 319.963 184.682C318.36 184.759 317.963 185.948 319.267 187.792C319.523 188.156 319.437 188.659 319.075 188.916C318.712 189.174 318.209 189.088 317.953 188.724C315.976 185.927 316.882 183.216 319.889 183.071Z" fill="#121212"/>
<path fill-rule="evenodd" clip-rule="evenodd" d="M314.633 187.508C316.895 187.335 321.943 187.909 327.153 189.011C333.667 190.39 339.845 192.418 344.744 194.99C345.138 195.197 345.29 195.684 345.084 196.079C344.878 196.473 344.391 196.625 343.997 196.419C339.245 193.924 333.201 191.94 326.821 190.589L326.284 190.478C321.404 189.477 316.76 188.963 314.755 189.116C312.28 189.304 312.772 192.696 317.076 196.15C317.423 196.429 317.479 196.936 317.201 197.284C316.923 197.631 316.416 197.687 316.069 197.409C313.526 195.367 311.999 193.148 311.718 191.21C311.421 189.165 312.582 187.663 314.633 187.508Z" fill="#121212"/>
<path fill-rule="evenodd" clip-rule="evenodd" d="M317.498 195.839C321.955 195.62 333.717 198.353 342.176 202.145C342.582 202.327 342.763 202.804 342.582 203.211C342.4 203.618 341.924 203.8 341.518 203.618C337.238 201.699 332.337 200.099 327.509 198.953L327.095 198.855C322.962 197.895 319.242 197.368 317.58 197.45C316.348 197.516 315.733 198.445 315.993 200.018C316.324 202.013 317.988 204.427 320.821 206.626C321.172 206.899 321.236 207.405 320.964 207.757C320.692 208.109 320.186 208.174 319.835 207.901C316.705 205.471 314.809 202.722 314.405 200.282C313.998 197.821 315.229 195.961 317.498 195.839Z" fill="#121212"/>
<path fill-rule="evenodd" clip-rule="evenodd" d="M322.243 204.312C325.287 203.939 333.888 206.104 341.699 209.341C342.11 209.511 342.305 209.983 342.135 210.394C341.965 210.806 341.494 211.001 341.084 210.831L340.628 210.644C333.181 207.61 325.074 205.59 322.436 205.914C321.535 206.021 321.175 206.38 321.21 206.993C321.261 207.881 322.061 209.184 323.601 210.642C327.579 214.411 335.352 218.353 346.345 221.652C346.771 221.78 347.012 222.229 346.885 222.656C346.757 223.083 346.309 223.325 345.883 223.197C334.67 219.832 326.682 215.781 322.495 211.814C320.685 210.1 319.682 208.467 319.603 207.085C319.515 205.55 320.556 204.514 322.243 204.312Z" fill="#121212"/>
<path fill-rule="evenodd" clip-rule="evenodd" d="M349.659 188.769L349.706 188.77C360.155 189.424 368.937 192.44 375.196 197.168C380.909 201.482 384.135 206.997 384.118 212.222C384.101 217.605 380.664 222.038 374.474 224.277C367.67 226.737 357.937 226.492 345.902 223.203C345.473 223.086 345.22 222.642 345.337 222.213C345.454 221.783 345.897 221.53 346.326 221.647C358.067 224.855 367.475 225.092 373.927 222.76C379.507 220.742 382.494 216.891 382.508 212.217C382.523 207.547 379.562 202.485 374.227 198.456C368.231 193.927 359.752 191.015 349.605 190.38C349.162 190.352 348.824 189.97 348.852 189.525C348.879 189.096 349.235 188.767 349.659 188.769Z" fill="#121212"/>
<path fill-rule="evenodd" clip-rule="evenodd" d="M454.893 224.871C455.338 224.871 455.698 225.232 455.698 225.677C455.698 226.107 455.363 226.458 454.94 226.482L454.893 226.484H1.00028C0.555707 226.484 0.195312 226.123 0.195312 225.677C0.195312 225.248 0.530425 224.897 0.952979 224.872L1.00028 224.871H454.893Z" fill="#121212"/>
</svg>
