<svg width="57" height="57" viewBox="0 0 57 57" fill="none" xmlns="http://www.w3.org/2000/svg">
<path d="M28.5 0C12.7551 0 0 12.757 0 28.5C0 44.243 12.757 57 28.5 57C44.2449 57 57 44.243 57 28.5C57 12.757 44.243 0 28.5 0ZM42.4981 19.5253L37.8204 41.5677C37.4747 43.1306 36.5444 43.5094 35.2462 42.7739L28.1212 37.5225L24.6847 40.8322C24.3059 41.211 23.9841 41.5328 23.2486 41.5328L23.7543 34.2809L36.9581 22.3514C37.5336 21.8457 36.8312 21.5589 36.0718 22.0645L19.7533 32.3374L12.7202 30.142C11.1922 29.6602 11.1573 28.614 13.042 27.8785L40.5196 17.282C41.7957 16.8224 42.91 17.5928 42.4963 19.5234L42.4981 19.5253Z" fill="white"/>
</svg>
