<svg width="53" height="54" viewBox="0 0 53 54" fill="none" xmlns="http://www.w3.org/2000/svg">
<path d="M38.6416 32.3595C37.9826 32.0243 34.7408 30.4088 34.1373 30.1838C33.5315 29.961 33.0922 29.8508 32.6506 30.5213C32.2135 31.1895 30.9488 32.6948 30.5649 33.1403C30.181 33.588 29.795 33.642 29.136 33.309C28.4769 32.9715 26.3513 32.2673 23.8329 29.9903C21.8736 28.2173 20.5489 26.028 20.1651 25.3576C19.7812 24.6893 20.1251 24.3271 20.4535 23.9941C20.7509 23.6948 21.1147 23.2133 21.4431 22.8241C21.7737 22.4326 21.8825 22.1536 22.1044 21.7058C22.324 21.2603 22.2153 20.8711 22.0489 20.5358C21.8825 20.2006 20.5645 16.9088 20.0164 15.5701C19.4794 14.2673 18.9358 14.4451 18.532 14.4226C18.1106 14.4055 17.6889 14.398 17.2672 14.4001C16.8279 14.4001 16.1134 14.5666 15.5099 15.2371C14.9064 15.9053 13.2023 17.5231 13.2023 20.8148C13.2023 24.1043 15.5654 27.2835 15.8937 27.7313C16.2244 28.1768 20.5445 34.9313 27.1589 37.827C28.7321 38.5155 29.9592 38.9273 30.9177 39.2333C32.4975 39.744 33.9354 39.672 35.0692 39.4988C36.3362 39.3075 38.97 37.881 39.5203 36.3195C40.0705 34.758 40.0705 33.4193 39.9041 33.1403C39.7399 32.8613 39.3006 32.6948 38.6394 32.3595H38.6416ZM26.6109 49.0163H26.602C22.6741 49.0166 18.8184 47.9457 15.4389 45.9158L14.6379 45.4343L6.33709 47.6438L8.55152 39.4358L8.03008 38.5943C5.83438 35.0489 4.6728 30.9458 4.67959 26.7593C4.68181 14.4968 14.5225 4.52033 26.6198 4.52033C32.4776 4.52033 37.9848 6.83783 42.1252 11.0408C44.1681 13.1032 45.7873 15.556 46.8891 18.2571C47.991 20.9583 48.5536 23.8542 48.5444 26.7773C48.5377 39.0398 38.6993 49.0163 26.6109 49.0163V49.0163ZM45.2782 7.84808C42.8334 5.35266 39.9246 3.37404 36.7202 2.02689C33.5159 0.679735 30.0797 -0.00917154 26.6109 9.21993e-05C12.0662 9.21993e-05 0.228543 12.0038 0.221887 26.757C0.221887 31.473 1.43561 36.0765 3.74545 40.1333L0 54L13.99 50.2785C17.8588 52.4158 22.1941 53.5359 26.5998 53.5365H26.6109C41.1533 53.5365 52.9932 41.5328 52.9999 26.7773C53.0106 23.2612 52.3337 19.7778 51.0083 16.5286C49.6829 13.2795 47.7353 10.3291 45.2782 7.84808V7.84808Z" fill="white"/>
</svg>
