<svg width="449" height="181" viewBox="0 0 449 181" fill="none" xmlns="http://www.w3.org/2000/svg">
<path fill-rule="evenodd" clip-rule="evenodd" d="M56.0042 47.6637C59.6743 43.4957 65.2914 42.5637 70.5698 44.9337C75.8529 47.3058 79.9202 52.5605 81.2679 59.284L81.4013 59.9659L81.4478 60.1985C82.5638 65.7404 83.6382 68.1873 85.915 70.6384L85.9942 70.7221C87.1999 71.9755 92.4272 76.6444 93.1842 77.3539C93.5261 77.6742 93.5435 78.2111 93.2232 78.553C92.9029 78.8949 92.3661 78.9123 92.0243 78.5919L91.2941 77.9254C89.5877 76.3788 85.6914 72.8715 84.7109 71.8345L84.6722 71.7933C82.1542 69.0826 80.9575 66.357 79.7848 60.5334C79.7374 60.2983 79.6899 60.057 79.642 59.8082C77.1797 46.9444 64.0779 41.0618 57.2772 48.7851C54.3413 52.1192 54.0457 57.1488 55.8554 63.158C57.1597 67.4891 59.6139 72.1814 61.4035 74.4262L61.4832 74.525C62.365 75.6096 62.7453 77.5335 63.1787 82.0151L63.5963 86.5555L63.6851 87.4753C63.8126 88.7697 63.9386 89.9257 64.079 91.0684C64.5194 94.6505 65.0756 97.8363 65.8349 100.857C65.9589 101.351 66.088 101.837 66.2223 102.318C66.3484 102.769 66.0848 103.237 65.6337 103.364C65.1825 103.49 64.7146 103.226 64.5885 102.775C64.4502 102.28 64.3173 101.778 64.1897 101.271C63.4115 98.1747 62.8436 94.9222 62.3953 91.2754L62.3307 90.7401C62.2139 89.7556 62.106 88.7488 61.997 87.6434L61.8834 86.4585C61.7876 85.428 61.5788 83.1155 61.5369 82.6697L61.4905 82.1826C61.0993 78.1559 60.7382 76.298 60.1677 75.5963C58.2308 73.2197 55.6183 68.2536 54.2311 63.6473C52.2699 57.1349 52.5993 51.5305 56.0042 47.6637Z" fill="#289976"/>
<path fill-rule="evenodd" clip-rule="evenodd" d="M42.5596 88.8173C47.4131 88.384 52.5809 90.5727 56.3761 94.958L56.7432 95.3872C58.8652 97.8591 60.3565 99.2605 61.8105 100.164C63.0137 100.911 64.2219 101.359 66.2455 101.848L66.5366 101.916C67.2708 102.082 70.9094 102.886 72.4004 103.251L73.0181 103.404C75.8037 104.103 78.6762 104.94 81.9592 106.04C86.8258 107.662 91.3995 110.914 95.7428 115.6C96.0613 115.943 96.041 116.48 95.6975 116.799C95.3539 117.117 94.8173 117.097 94.4988 116.753C90.3351 112.262 85.9899 109.172 81.4216 107.649C78.0598 106.523 75.1402 105.678 72.3008 104.974L71.5389 104.789C69.7422 104.363 66.3013 103.605 66.0293 103.54C63.7367 102.996 62.3359 102.488 60.9153 101.605C59.2262 100.556 57.5619 98.9718 55.203 96.1961C48.1418 87.8875 36.363 88.9392 34.6834 97.2315C33.9464 100.813 35.8012 104.572 39.5819 108.198C42.3079 110.812 46.0122 113.224 48.2161 114.126L48.3269 114.171C49.4616 114.615 50.5622 115.903 52.7604 119.04L55.3078 122.702L55.7658 123.352C57.0003 125.09 58.1209 126.587 59.2714 128.013C63.064 132.713 66.8734 136.217 71.0719 138.507C73.6437 139.916 76.0447 140.494 78.4358 140.416C80.2299 140.357 81.8141 139.982 84.0666 139.194L85.7332 138.598L86.1294 138.46C86.5062 138.331 86.829 138.227 87.1396 138.136C88.1981 137.826 89.0683 137.685 89.8921 137.73C91.8939 137.84 93.4467 139.063 94.7471 141.64C94.9581 142.059 94.7901 142.569 94.3719 142.78C93.9537 142.991 93.4436 142.823 93.2326 142.405C92.204 140.366 91.1696 139.528 89.8732 139.429L89.7202 139.42C88.8603 139.379 88.4231 139.466 86.226 140.232L84.8399 140.721C82.326 141.612 80.5517 142.045 78.4911 142.112C75.7955 142.2 73.0942 141.55 70.2583 139.996C65.8366 137.584 61.8719 133.937 57.9514 129.079C56.8457 127.709 55.7704 126.278 54.603 124.644L54.0805 123.906L51.3746 120.019L51.1075 119.64C49.3649 117.177 48.3817 116.039 47.7379 115.763L47.706 115.75C45.3078 114.802 41.3372 112.232 38.4078 109.422C34.2499 105.435 32.1423 101.164 33.0213 96.8921C33.9559 92.278 37.6904 89.2521 42.5596 88.8173Z" fill="#289976"/>
<path fill-rule="evenodd" clip-rule="evenodd" d="M101.503 35.0203C104.637 28.9765 109.731 25.9636 116.998 26.6519C120.059 26.938 122.508 27.7947 124.381 29.1919C124.757 29.472 124.834 30.0035 124.554 30.3791C124.274 30.7547 123.743 30.8321 123.367 30.552C121.76 29.3529 119.606 28.5998 116.839 28.3411C110.284 27.7203 105.835 30.3519 103.009 35.8015C100.721 40.212 99.5925 46.2227 99.2877 53.724L99.2759 54.0249C99.1918 56.2676 99.1869 58.0468 99.233 60.9048L99.2683 63.0584C99.3082 65.8952 99.2781 67.0879 99.116 68.5495L99.1073 68.6267C98.8526 70.8748 98.2755 72.7287 97.2123 74.5243C96.391 75.9116 95.2716 77.2695 93.775 78.6893L93.6071 78.8473C90.8375 81.4348 90.8927 84.3483 93.0868 88.998L93.3074 89.4575C93.5787 90.0142 93.8736 90.5893 94.3334 91.4678L94.9976 92.7407C95.9047 94.492 96.2828 95.3 96.6944 96.3826C97.3771 98.1787 97.6443 99.7181 97.4293 101.146L97.3874 101.4C97.2229 102.346 96.7542 104.712 96.7044 104.982C95.8749 109.49 95.6206 113.611 96.1699 118.75C96.9086 125.66 99.1055 133.392 103.13 142.208C103.324 142.634 103.137 143.137 102.711 143.332C102.284 143.526 101.781 143.338 101.587 142.912C97.4887 133.935 95.2418 126.027 94.4832 118.93C93.9264 113.722 94.1685 109.508 94.9843 104.96L95.0606 104.546C95.1862 103.893 95.6667 101.458 95.7518 100.893C95.9111 99.8353 95.7111 98.6171 95.1663 97.1394L95.0588 96.8552C94.676 95.8646 94.29 95.0571 93.3613 93.2707L92.58 91.7746C92.1708 90.9877 91.9 90.4503 91.6232 89.8706C90.4615 87.4379 89.8535 85.518 89.8005 83.6704C89.736 81.4228 90.5416 79.4375 92.3421 77.7088L92.4491 77.6074C93.9188 76.2344 94.9888 74.95 95.7527 73.6598C96.6557 72.1347 97.1585 70.5653 97.3979 68.6365L97.4378 68.2908C97.5833 66.9463 97.6102 65.784 97.5717 63.0574L97.5269 60.2815C97.4934 57.9037 97.5008 56.2561 97.5682 54.3083L97.5807 53.9613C97.876 46.0909 99.0445 39.7605 101.503 35.0203Z" fill="#289976"/>
<path fill-rule="evenodd" clip-rule="evenodd" d="M123.262 98.6227C118.615 103.472 115.223 110.34 112.874 118.932C110.97 125.895 109.813 133.704 109.174 142.498C109.138 142.99 109.527 143.408 110.02 143.408H123.874C124.342 143.408 124.722 143.028 124.722 142.56V99.2097C124.722 98.4451 123.791 98.0707 123.262 98.6227ZM123.026 101.444V141.711H110.934L110.937 141.677C111.582 133.368 112.707 125.973 114.51 119.38C116.526 112.007 119.315 105.977 122.99 101.488L123.026 101.444Z" fill="#289976"/>
<path fill-rule="evenodd" clip-rule="evenodd" d="M123.621 141.711C124.089 141.711 124.469 142.091 124.469 142.56C124.469 143.012 124.116 143.381 123.671 143.407L123.621 143.408H89.4102C87.3779 143.408 85.8754 145.204 86.2634 147.107L93.5742 179.786C93.6764 180.244 93.3888 180.697 92.9316 180.8C92.4908 180.898 92.0534 180.634 91.931 180.205L91.9187 180.157L84.6253 147.557C83.9424 144.586 86.2272 141.768 89.3163 141.712L89.4102 141.711H123.621Z" fill="#121212"/>
<path fill-rule="evenodd" clip-rule="evenodd" d="M339.685 0.264755H123.876C123.407 0.264755 123.027 0.64457 123.027 1.1131V179.661C123.027 180.129 123.407 180.509 123.876 180.509H339.685C340.154 180.509 340.533 180.129 340.533 179.661V1.1131C340.533 0.64457 340.154 0.264755 339.685 0.264755ZM338.837 1.96114V178.812H124.724V1.96114H338.837Z" fill="#121212"/>
<path fill-rule="evenodd" clip-rule="evenodd" d="M258.683 133.681H246.583C246.114 133.681 245.734 134.06 245.734 134.529V153.419C245.734 153.887 246.114 154.267 246.583 154.267H258.683C259.152 154.267 259.532 153.887 259.532 153.419V134.529C259.532 134.06 259.152 133.681 258.683 133.681ZM257.834 135.377V152.57H247.43V135.377H257.834Z" fill="#121212"/>
<path fill-rule="evenodd" clip-rule="evenodd" d="M277.683 125.734H265.583C265.114 125.734 264.734 126.114 264.734 126.583V153.419C264.734 153.887 265.114 154.267 265.583 154.267H277.683C278.152 154.267 278.532 153.887 278.532 153.419V126.583C278.532 126.114 278.152 125.734 277.683 125.734ZM276.834 127.431V152.57H266.43V127.431H276.834Z" fill="#121212"/>
<path fill-rule="evenodd" clip-rule="evenodd" d="M296.652 113.179H284.551C284.083 113.179 283.703 113.559 283.703 114.027V153.419C283.703 153.887 284.083 154.267 284.551 154.267H296.652C297.121 154.267 297.5 153.887 297.5 153.419V114.027C297.5 113.559 297.121 113.179 296.652 113.179ZM295.804 114.876V152.57H285.4V114.876H295.804Z" fill="#121212"/>
<rect x="303.527" y="103.169" width="12.1009" height="50.2501" fill="#FA742E"/>
<path fill-rule="evenodd" clip-rule="evenodd" d="M319.727 77.379C319.529 77.2093 319.275 77.1528 319.049 77.181L311.132 78.4536C310.68 78.5384 310.341 78.9626 310.425 79.415C310.51 79.8675 310.934 80.1785 311.387 80.122L316.561 79.3019L301.123 97.2302L294.819 91.1787C294.649 91.009 294.423 90.9242 294.197 90.9524C293.97 90.9524 293.744 91.0656 293.603 91.2352L272.907 115.272L266.913 110.775C266.574 110.521 266.121 110.549 265.81 110.832L247.235 128.647C246.895 128.958 246.895 129.495 247.206 129.835C247.376 130.004 247.602 130.089 247.828 130.089C248.026 130.089 248.253 130.004 248.422 129.863L266.489 112.529L272.567 117.081C272.935 117.336 273.416 117.308 273.727 116.968L294.338 93.0167L300.643 99.0682C300.812 99.2379 301.039 99.3227 301.265 99.2945C301.491 99.2945 301.717 99.1814 301.859 99.0117L318.342 79.8675L318.229 86.5694C318.229 87.0501 318.596 87.4177 319.077 87.4177C319.529 87.4177 319.925 87.0501 319.925 86.5694L320.067 78.0011C320.038 77.8032 319.925 77.5487 319.727 77.379Z" fill="#289976"/>
<path fill-rule="evenodd" clip-rule="evenodd" d="M197.672 133.03C198.14 133.03 198.52 133.41 198.52 133.878C198.52 134.33 198.167 134.7 197.722 134.725L197.672 134.727H145.649C145.181 134.727 144.801 134.347 144.801 133.878C144.801 133.427 145.154 133.057 145.599 133.032L145.649 133.03H197.672Z" fill="#121212"/>
<path fill-rule="evenodd" clip-rule="evenodd" d="M183.959 140.948C184.428 140.948 184.807 141.328 184.807 141.796C184.807 142.248 184.454 142.618 184.009 142.643L183.959 142.645H145.649C145.181 142.645 144.801 142.265 144.801 141.796C144.801 141.345 145.154 140.975 145.599 140.95L145.649 140.948H183.959Z" fill="#121212"/>
<path fill-rule="evenodd" clip-rule="evenodd" d="M171.658 149.827C172.127 149.827 172.507 150.207 172.507 150.676C172.507 151.127 172.154 151.497 171.708 151.523L171.658 151.524H144.516C144.048 151.524 143.668 151.144 143.668 150.676C143.668 150.224 144.021 149.855 144.466 149.829L144.516 149.827H171.658Z" fill="#121212"/>
<path fill-rule="evenodd" clip-rule="evenodd" d="M226.114 133.03C226.582 133.03 226.962 133.41 226.962 133.878C226.962 134.33 226.609 134.7 226.163 134.725L226.114 134.727H203.665C203.196 134.727 202.816 134.347 202.816 133.878C202.816 133.427 203.17 133.057 203.615 133.032L203.665 133.03H226.114Z" fill="#121212"/>
<path fill-rule="evenodd" clip-rule="evenodd" d="M170.328 116.572L176.322 122.228V110.832L170.328 116.572Z" fill="#289976"/>
<path fill-rule="evenodd" clip-rule="evenodd" d="M161.707 122.511L167.871 116.601L161.707 110.804V122.511Z" fill="#289976"/>
<path fill-rule="evenodd" clip-rule="evenodd" d="M192.272 108.824H178.418L185.401 115.413L192.272 108.824Z" fill="#289976"/>
<path fill-rule="evenodd" clip-rule="evenodd" d="M169.082 117.76L162.07 124.518H176.263L169.082 117.76Z" fill="#289976"/>
<path fill-rule="evenodd" clip-rule="evenodd" d="M178.02 122.511L184.183 116.601L178.02 110.804V122.511Z" fill="#289976"/>
<path fill-rule="evenodd" clip-rule="evenodd" d="M144.516 110.012V123.331L151.527 116.601L144.516 110.012Z" fill="#289976"/>
<path fill-rule="evenodd" clip-rule="evenodd" d="M152.773 117.76L145.762 124.518H159.955L152.773 117.76Z" fill="#289976"/>
<path fill-rule="evenodd" clip-rule="evenodd" d="M159.616 108.824H145.762L152.773 115.413L159.616 108.824Z" fill="#289976"/>
<path fill-rule="evenodd" clip-rule="evenodd" d="M192.638 122.228V110.832L186.645 116.572L192.638 122.228Z" fill="#289976"/>
<path fill-rule="evenodd" clip-rule="evenodd" d="M154.016 116.572L160.01 122.228V110.832L154.016 116.572Z" fill="#289976"/>
<path fill-rule="evenodd" clip-rule="evenodd" d="M185.43 117.76L178.418 124.518H192.611L185.43 117.76Z" fill="#289976"/>
<path fill-rule="evenodd" clip-rule="evenodd" d="M175.924 108.824H162.07L169.082 115.413L175.924 108.824Z" fill="#289976"/>
<path fill-rule="evenodd" clip-rule="evenodd" d="M208.949 108.824H194.332V124.518H208.949V108.824Z" fill="#289976"/>
<path fill-rule="evenodd" clip-rule="evenodd" d="M226.114 108.824H210.648V124.518H226.114V108.824Z" fill="#289976"/>
<path fill-rule="evenodd" clip-rule="evenodd" d="M192.578 124.518C192.606 124.547 192.606 124.547 192.634 124.547V124.518H192.578Z" fill="#289976"/>
<path fill-rule="evenodd" clip-rule="evenodd" d="M307.793 50.4583H299.028C298.559 50.4583 298.18 50.8381 298.18 51.3066V60.0728C298.18 60.5413 298.559 60.9212 299.028 60.9212H307.793C308.261 60.9212 308.641 60.5413 308.641 60.0728V51.3066C308.641 50.8381 308.261 50.4583 307.793 50.4583ZM306.943 52.1547V59.2242H299.875V52.1547H306.943Z" fill="#121212"/>
<path fill-rule="evenodd" clip-rule="evenodd" d="M309.516 34.566H276.012C275.544 34.566 275.164 34.9458 275.164 35.4143V45.5096C275.164 45.9781 275.544 46.3579 276.012 46.3579H309.516C309.985 46.3579 310.364 45.9781 310.364 45.5096V35.4143C310.364 34.9458 309.985 34.566 309.516 34.566ZM308.668 36.2627V44.6612H276.861V36.2627H308.668Z" fill="#121212"/>
<path fill-rule="evenodd" clip-rule="evenodd" d="M293.061 59.2245C293.53 59.2245 293.909 59.6043 293.909 60.0728C293.909 60.5246 293.556 60.8939 293.111 60.9197L293.061 60.9212H276.012C275.544 60.9212 275.164 60.5413 275.164 60.0728C275.164 59.621 275.517 59.2517 275.962 59.2259L276.012 59.2245H293.061Z" fill="#121212"/>
<path fill-rule="evenodd" clip-rule="evenodd" d="M293.061 55.0676C293.53 55.0676 293.909 55.4474 293.909 55.9159C293.909 56.3677 293.556 56.737 293.111 56.7628L293.061 56.7642H276.012C275.544 56.7642 275.164 56.3844 275.164 55.9159C275.164 55.4641 275.517 55.0948 275.962 55.069L276.012 55.0676H293.061Z" fill="#121212"/>
<path fill-rule="evenodd" clip-rule="evenodd" d="M293.061 50.9389C293.53 50.9389 293.909 51.3188 293.909 51.7873C293.909 52.2391 293.556 52.6084 293.111 52.6342L293.061 52.6356H276.012C275.544 52.6356 275.164 52.2558 275.164 51.7873C275.164 51.3355 275.517 50.9662 275.962 50.9404L276.012 50.9389H293.061Z" fill="#121212"/>
<path fill-rule="evenodd" clip-rule="evenodd" d="M295.098 82.9214C295.566 82.9214 295.946 83.3013 295.946 83.7698C295.946 84.2216 295.593 84.5909 295.148 84.6167L295.098 84.6181H248.532C248.063 84.6181 247.684 84.2383 247.684 83.7698C247.684 83.318 248.037 82.9487 248.482 82.9229L248.532 82.9214H295.098Z" fill="#121212"/>
<path fill-rule="evenodd" clip-rule="evenodd" d="M276.013 86.9087C276.482 86.9087 276.862 87.2885 276.862 87.757C276.862 88.2088 276.509 88.5781 276.063 88.6039L276.013 88.6054H248.532C248.063 88.6054 247.684 88.2255 247.684 87.757C247.684 87.3052 248.037 86.9359 248.482 86.9101L248.532 86.9087H276.013Z" fill="#121212"/>
<path fill-rule="evenodd" clip-rule="evenodd" d="M200.749 59.6204L232.698 43.4171C235.243 48.4505 236.571 53.993 236.571 59.6204C236.571 79.2736 220.399 95.4486 200.749 95.4486C189.836 95.4486 179.516 90.4717 172.73 81.9317L200.749 59.6204Z" fill="#FA742E"/>
<path fill-rule="evenodd" clip-rule="evenodd" d="M257.806 31.4272C258.274 31.4272 258.654 31.807 258.654 32.2755C258.654 32.7273 258.301 33.0966 257.856 33.1224L257.806 33.1239H228.204C227.735 33.1239 227.355 32.7441 227.355 32.2755C227.355 31.8237 227.709 31.4544 228.154 31.4286L228.204 31.4272H257.806Z" fill="#121212"/>
<path fill-rule="evenodd" clip-rule="evenodd" d="M257.804 35.4144C258.273 35.4144 258.653 35.7942 258.653 36.2627C258.653 36.7145 258.299 37.0838 257.854 37.1096L257.804 37.1111H242.028C241.559 37.1111 241.18 36.7313 241.18 36.2627C241.18 35.8109 241.533 35.4416 241.978 35.4158L242.028 35.4144H257.804Z" fill="#121212"/>
<path fill-rule="evenodd" clip-rule="evenodd" d="M257.806 39.4298C258.275 39.4298 258.655 39.8097 258.655 40.2782C258.655 40.73 258.302 41.0993 257.856 41.1251L257.806 41.1265H247.317C246.849 41.1265 246.469 40.7467 246.469 40.2782C246.469 39.8264 246.822 39.4571 247.267 39.4313L247.317 39.4298H257.806Z" fill="#121212"/>
<path fill-rule="evenodd" clip-rule="evenodd" d="M258.682 63.1834C259.151 63.1834 259.53 63.5632 259.53 64.0317C259.53 64.4835 259.177 64.8528 258.732 64.8786L258.682 64.8801H220.485C220.016 64.8801 219.637 64.5002 219.637 64.0317C219.637 63.5799 219.99 63.2106 220.435 63.1848L220.485 63.1834H258.682Z" fill="#121212"/>
<path fill-rule="evenodd" clip-rule="evenodd" d="M258.681 66.3223C259.149 66.3223 259.529 66.7021 259.529 67.1706C259.529 67.6224 259.176 67.9917 258.731 68.0175L258.681 68.019H251.528C251.059 68.019 250.68 67.6391 250.68 67.1706C250.68 66.7188 251.033 66.3495 251.478 66.3237L251.528 66.3223H258.681Z" fill="#121212"/>
<path fill-rule="evenodd" clip-rule="evenodd" d="M179.034 28.1186C179.502 28.1186 179.882 28.4984 179.882 28.967C179.882 29.4188 179.529 29.7881 179.084 29.8139L179.034 29.8153H156.274C155.806 29.8153 155.426 29.4355 155.426 28.967C155.426 28.5152 155.779 28.1459 156.224 28.1201L156.274 28.1186H179.034Z" fill="#121212"/>
<path fill-rule="evenodd" clip-rule="evenodd" d="M160.826 31.3423C161.294 31.3423 161.674 31.7221 161.674 32.1906C161.674 32.6424 161.321 33.0117 160.876 33.0375L160.826 33.039H156.274C155.806 33.039 155.426 32.6592 155.426 32.1906C155.426 31.7388 155.779 31.3695 156.224 31.3437L156.274 31.3423H160.826Z" fill="#121212"/>
<path fill-rule="evenodd" clip-rule="evenodd" d="M194.066 60.3556L159.601 60.7232C159.132 60.7282 158.757 61.1121 158.762 61.5806C158.847 69.5238 161.561 77.0388 166.41 83.1384C166.701 83.5047 167.234 83.566 167.601 83.2752L194.602 61.8687C195.235 61.3666 194.874 60.347 194.066 60.3556ZM191.606 62.0783L167.219 81.4125L167.153 81.3258C163.095 75.9145 160.752 69.414 160.482 62.5359L160.478 62.4105L191.606 62.0783Z" fill="#289976"/>
<path fill-rule="evenodd" clip-rule="evenodd" d="M162.61 45.3733C161.043 49.4235 160.234 53.7166 160.234 58.15V58.6024C160.234 59.0753 160.621 59.4569 161.094 59.4507L195.531 58.9982C196.463 58.986 196.696 57.6966 195.826 57.3591L163.708 44.8885C163.271 44.7188 162.779 44.9359 162.61 45.3733ZM163.896 46.7813L191.14 57.359L161.934 57.7427L161.936 57.5749C161.997 53.9387 162.63 50.4082 163.804 47.0426L163.896 46.7813Z" fill="#289976"/>
<path fill-rule="evenodd" clip-rule="evenodd" d="M218.303 24.5605L201.31 54.4504C200.897 55.1782 201.675 56.002 202.425 55.6295L233.215 40.331C233.633 40.123 233.805 39.6154 233.598 39.1961C230.506 32.9245 225.56 27.7003 219.458 24.2417C219.051 24.011 218.534 24.1536 218.303 24.5605ZM219.353 26.1449L219.454 26.2054C224.604 29.3243 228.829 33.7884 231.639 39.091L231.693 39.1927L204.158 52.8742L219.353 26.1449Z" fill="#289976"/>
<path fill-rule="evenodd" clip-rule="evenodd" d="M215.081 25.7716C210.105 22.9155 204.337 21.2754 198.202 21.2188H197.637C183.189 21.3602 170.89 30.3809 165.914 43.0777L197.976 55.6615L215.081 25.7716Z" fill="#121212"/>
<path fill-rule="evenodd" clip-rule="evenodd" d="M166.03 66.4354C166.498 66.4354 166.878 66.8152 166.878 67.2837C166.878 67.7355 166.525 68.1048 166.08 68.1306L166.03 68.132H143.27C142.802 68.132 142.422 67.7522 142.422 67.2837C142.422 66.8319 142.775 66.4626 143.22 66.4368L143.27 66.4354H166.03Z" fill="#121212"/>
<path fill-rule="evenodd" clip-rule="evenodd" d="M151.498 69.659C151.966 69.659 152.346 70.0389 152.346 70.5074C152.346 70.9592 151.993 71.3285 151.547 71.3543L151.498 71.3557H143.27C142.802 71.3557 142.422 70.9759 142.422 70.5074C142.422 70.0556 142.775 69.6863 143.22 69.6605L143.27 69.659H151.498Z" fill="#121212"/>
<path fill-rule="evenodd" clip-rule="evenodd" d="M315.8 164.279C316.268 164.25 316.67 164.605 316.7 165.073C316.729 165.54 316.374 165.943 315.906 165.972C314.152 166.082 312.305 166.291 310.483 166.596L308.091 167.016L307.055 167.203C306.793 167.251 306.541 167.298 306.294 167.344L305.929 167.413C303.292 167.915 301.398 168.358 300.296 168.765C300.039 168.86 299.836 168.949 299.695 169.028C299.661 169.047 299.632 169.065 299.609 169.08L299.575 169.104C299.41 169.372 299.46 169.513 299.836 169.742L299.885 169.771C300.492 170.128 301.535 170.339 302.62 170.301C303.089 170.285 303.481 170.652 303.497 171.12C303.513 171.588 303.147 171.981 302.679 171.997C301.295 172.045 299.939 171.771 299.025 171.233C297.814 170.521 297.397 169.325 298.18 168.138C298.447 167.733 298.936 167.458 299.708 167.173L299.883 167.11C301.051 166.701 302.827 166.284 305.237 165.818L305.981 165.677C306.416 165.595 306.87 165.512 307.362 165.423L309.769 164.997C311.79 164.642 313.849 164.401 315.8 164.279Z" fill="#121212"/>
<path fill-rule="evenodd" clip-rule="evenodd" d="M330.943 162.899L330.957 162.947L334.943 179.462C335.068 179.979 334.692 180.478 334.168 180.508L334.119 180.509L311.641 180.509L311.545 180.514C308.775 180.664 307.122 179.943 307.063 178.393L307.061 178.325C307.06 178.204 307.071 178.082 307.092 177.962L307.101 177.912L307.021 177.909C305.438 177.831 303.873 177.015 303.505 176.053L303.486 175.998C303.39 175.711 303.422 175.395 303.565 175.061L303.574 175.04L303.518 175.047C302.763 175.14 302.153 175.142 301.67 175.05L301.598 175.036C300.174 174.728 299.796 173.548 300.503 172.133C300.929 171.263 302.994 169.9 306.212 168.139L306.738 167.853C309.109 166.578 311.481 165.446 312.453 165.136L312.62 165.087C313.449 164.855 316.142 164.397 320.316 163.751L321.255 163.607C322.474 163.42 323.748 163.228 325.043 163.035L328.421 162.537L330.011 162.307C330.428 162.247 330.822 162.501 330.943 162.899ZM333.042 178.812L329.489 164.096L327.522 164.384L325.294 164.713C324.371 164.85 323.458 164.988 322.568 165.123L319.926 165.529C316.255 166.101 313.782 166.526 313.09 166.717L313.035 166.733C310.949 167.329 302.474 171.969 302.025 172.886C301.945 173.046 301.893 173.18 301.867 173.285L301.857 173.329L301.853 173.349L301.897 173.363L301.957 173.377C302.52 173.499 303.637 173.376 305.266 172.996L305.596 172.917L305.612 172.906C306.327 172.39 307.188 171.874 308.147 171.384L308.263 171.325C308.773 171.067 309.326 170.806 309.916 170.542C311.008 170.054 312.174 169.58 313.34 169.137L313.682 169.008C313.849 168.945 314.011 168.886 314.166 168.829L314.554 168.688L314.899 168.566C315.342 168.413 315.825 168.647 315.978 169.09C316.126 169.517 315.913 169.981 315.501 170.151L315.042 170.316L314.748 170.422C314.497 170.514 314.227 170.615 313.942 170.723C312.804 171.155 311.667 171.618 310.609 172.091C310.041 172.345 309.512 172.595 309.028 172.839C307.735 173.492 306.63 174.212 305.88 174.865C305.606 175.103 305.394 175.32 305.255 175.498L305.221 175.543L305.273 175.584C305.476 175.737 305.749 175.887 306.048 176.002C306.735 176.266 307.445 176.315 308.054 176.102L308.073 176.095L308.145 176.052C309.004 175.536 310.169 175.003 311.574 174.458L311.758 174.387C312.359 174.157 312.983 173.931 313.617 173.714L314.019 173.578L314.412 173.42C316.08 172.757 316.623 172.622 317.093 172.72L317.117 172.725C317.973 172.92 318.006 174.128 317.162 174.368L316.916 174.44L316.464 174.576C316.264 174.637 316.053 174.702 315.832 174.772L315.665 174.825C315.415 174.904 315.165 174.985 314.915 175.067L314.625 175.164L313.704 175.539L311.758 176.339C311.17 176.578 310.79 176.728 310.409 176.869L310.258 176.926C309.424 177.221 308.755 177.922 308.758 178.31C308.759 178.394 308.817 178.471 309.079 178.585C309.542 178.786 310.33 178.88 311.433 178.821L311.561 178.814L311.614 178.812L333.042 178.812Z" fill="#121212"/>
<path fill-rule="evenodd" clip-rule="evenodd" d="M398.24 118.524C398.494 111.115 394.451 104.243 387.864 100.878L377.205 95.1376L376.045 100.397C374.773 106.109 369.119 109.729 363.407 108.457L362.022 108.145C356.311 106.873 352.692 101.217 353.964 95.5052L355.745 87.5025C353.71 86.0886 352.098 84.1657 351.335 81.6772C351.278 81.5076 351.25 81.3379 351.193 81.1965L340.563 75.4843L340.534 157.971L369.373 152.061L367.988 132.691C367.959 132.21 368.299 131.814 368.779 131.786C369.26 131.758 369.656 132.097 369.684 132.578L371.126 152.683C371.154 153.108 370.871 153.503 370.447 153.588L340.534 159.725V159.951L324.164 162.948C327.387 163.57 330.95 179.548 330.95 179.548H389.023C394.678 179.548 399.258 174.91 399.173 169.226L398.24 118.524Z" fill="#121212"/>
<path fill-rule="evenodd" clip-rule="evenodd" d="M378.805 82.9735C378.902 82.5149 379.351 82.2212 379.81 82.3174C380.252 82.4102 380.541 82.8317 380.474 83.2728L380.466 83.3219L376.844 100.582C375.483 106.694 369.479 110.58 363.377 109.324L363.193 109.284L361.809 108.974C355.697 107.612 351.812 101.607 353.068 95.5058L353.107 95.3209L354.888 87.3182C354.99 86.8609 355.443 86.5726 355.901 86.6745C356.342 86.7726 356.625 87.1976 356.554 87.6379L356.544 87.6869L354.763 95.6897C353.606 100.886 356.851 106.041 362.021 107.281L362.179 107.318L363.563 107.629C368.758 108.786 373.913 105.54 375.15 100.38L375.186 100.223L378.805 82.9735Z" fill="#121212"/>
<path fill-rule="evenodd" clip-rule="evenodd" d="M359.652 44.3706L359.466 44.6886C356.237 50.2229 353.51 56.9189 351.567 63.5383L351.562 63.5572L351.563 63.5475C351.563 63.5506 351.562 63.5542 351.562 63.5582L351.486 63.8171L351.417 64.0585L351.345 64.3182C351.32 64.4081 351.295 64.5013 351.269 64.5983C351.045 65.4385 350.822 66.3653 350.614 67.3646C350.002 70.3095 349.642 73.255 349.661 76.0195C349.676 78.2073 349.932 80.1919 350.468 81.9274C351.59 85.5627 354.448 88.301 358.351 89.8961C361.772 91.2942 365.764 91.6844 368.96 90.9896L369.3 90.9147C374.505 89.7559 376.236 88.7049 379.088 85.3602L379.181 85.2515C380.076 84.1953 381.452 82.0301 383.208 78.9959L383.617 78.2862C383.721 78.1038 383.827 77.919 383.933 77.7319C384.843 76.1313 385.784 74.4277 386.712 72.7149L387.223 71.7682C387.337 71.5556 387.448 71.3486 387.556 71.1477L388.332 69.6858L388.377 69.5964C388.495 69.3604 388.655 69.0117 388.841 68.5594C389.127 67.8657 389.406 67.0921 389.661 66.2498C390.372 63.9035 390.785 61.4252 390.766 58.9062C390.709 51.7643 387.233 45.6513 379.327 41.4518L379.039 41.3007C378.301 40.9205 377.429 40.5251 376.409 40.1429C374.693 39.5003 372.935 39.0466 371.187 38.8619C366.373 38.3532 362.344 39.9378 359.732 44.2386L359.652 44.3706ZM371.009 40.5491C372.601 40.7174 374.223 41.1361 375.814 41.7318C376.893 42.136 377.793 42.5555 378.53 42.9492C385.871 46.8486 389.018 52.3831 389.069 58.9196C389.088 61.253 388.701 63.5652 388.037 65.7578C387.798 66.5459 387.538 67.2685 387.273 67.9134L387.177 68.1407C387.131 68.2504 387.085 68.3539 387.042 68.4512L386.945 68.6617C386.92 68.7145 386.898 68.7602 386.879 68.7984L386.794 68.9669L386.269 69.9563C386.065 70.3389 385.846 70.7477 385.614 71.1782L385.497 71.3952C384.486 73.27 383.453 75.1446 382.458 76.8931L382.145 77.4426L381.837 77.978C380.118 80.9547 378.758 83.1066 377.931 84.1013L377.713 84.3588C375.097 87.4092 373.653 88.2328 368.599 89.3316C365.745 89.9522 362.102 89.596 358.993 88.3255C355.528 86.9095 353.047 84.5329 352.089 81.4271C351.607 79.8653 351.371 78.041 351.357 76.0075C351.34 73.4795 351.659 70.7642 352.208 68.0374L352.292 67.6299L352.339 67.4083C352.61 66.1679 353.018 64.593 353.17 64.0085L353.195 64.0161C355.101 57.5204 357.778 50.9489 360.929 45.5459L361.112 45.2355C363.351 41.4606 366.758 40.1 371.009 40.5491Z" fill="#121212"/>
<path fill-rule="evenodd" clip-rule="evenodd" d="M352.382 63.749C354.051 58.0934 356.708 50.939 360.384 44.7744C360.553 44.4916 360.723 44.2089 360.921 43.9544C357.952 41.6356 353.118 46.4145 349.781 56.2836C348.057 61.3736 343.363 63.9469 343.363 63.9469C346.954 67.0858 350.205 65.7285 352.326 63.9469C352.354 63.8338 352.354 63.749 352.382 63.749Z" fill="#121212"/>
<path fill-rule="evenodd" clip-rule="evenodd" d="M359.963 60.1832C360.137 59.7479 360.63 59.5355 361.065 59.7089C361.485 59.876 361.697 60.3408 361.556 60.764L361.539 60.8109L358.044 69.5887L360.367 70.4469C360.79 70.6034 361.014 71.0627 360.884 71.4894L360.868 71.5366C360.712 71.9604 360.253 72.1845 359.826 72.0544L359.779 72.0385L356.64 70.8791C356.209 70.7197 355.986 70.2478 356.129 69.8171L356.146 69.7694L359.963 60.1832Z" fill="#121212"/>
<path fill-rule="evenodd" clip-rule="evenodd" d="M358.194 59.832C358.532 59.0426 358.4 58.2279 357.897 58.0124C357.395 57.7969 356.713 58.2621 356.375 59.0515C356.036 59.8408 356.169 60.6555 356.671 60.871C357.173 61.0866 357.855 60.6214 358.194 59.832Z" fill="#121212"/>
<path fill-rule="evenodd" clip-rule="evenodd" d="M366.912 63.5944C367.097 62.7556 366.815 61.9802 366.281 61.8624C365.747 61.7446 365.165 62.3291 364.98 63.1678C364.795 64.0066 365.077 64.7821 365.611 64.8999C366.145 65.0176 366.727 64.4332 366.912 63.5944Z" fill="#121212"/>
<path fill-rule="evenodd" clip-rule="evenodd" d="M369.306 57.2483C369.398 56.7889 369.844 56.491 370.304 56.5828C371.597 56.8415 372.613 57.4694 373.367 58.3473C373.721 58.7605 373.994 59.2016 374.197 59.6444C374.322 59.9173 374.399 60.1388 374.436 60.2848C374.553 60.7384 374.281 61.2011 373.827 61.3184C373.39 61.4314 372.944 61.1819 372.808 60.7572L372.782 60.6684C372.761 60.6025 372.72 60.4925 372.655 60.3515C372.515 60.0456 372.325 59.7381 372.08 59.4526C371.564 58.8522 370.878 58.4279 369.971 58.2466C369.512 58.1547 369.214 57.7078 369.306 57.2483Z" fill="#121212"/>
<path fill-rule="evenodd" clip-rule="evenodd" d="M358.16 51.0982C359.175 51.024 360.197 51.3671 361.195 51.9703C361.72 52.2879 362.126 52.6059 362.371 52.8309C362.716 53.1478 362.739 53.6845 362.422 54.0296C362.105 54.3746 361.569 54.3975 361.224 54.0806L361.188 54.0493C361.145 54.0116 361.078 53.9557 360.989 53.8864C360.787 53.7284 360.561 53.5697 360.317 53.4223C359.593 52.9843 358.884 52.7464 358.283 52.7903C358 52.8111 357.741 52.8943 357.5 53.0502L357.428 53.0991C357.047 53.372 356.517 53.2843 356.245 52.9034C355.972 52.5225 356.059 51.9926 356.44 51.7198C356.961 51.3466 357.542 51.1433 358.16 51.0982Z" fill="#121212"/>
<path fill-rule="evenodd" clip-rule="evenodd" d="M406.526 64.0318L396.942 59.1679C398.157 52.0419 397.394 41.0134 384.021 34.7923C363.099 25.0646 355.465 46.0186 355.465 46.0186L403.388 70.1964C405.084 71.073 407.177 70.366 408.053 68.6694C408.93 66.9727 408.251 64.9084 406.526 64.0318Z" fill="#289976"/>
<path fill-rule="evenodd" clip-rule="evenodd" d="M365.524 75.5254C365.877 75.8344 365.912 76.3704 365.603 76.7226C365.54 76.794 365.437 76.8976 365.294 77.0225C365.067 77.22 364.801 77.4153 364.496 77.5966C362.697 78.6637 360.424 78.7995 357.819 77.4541C357.402 77.2392 357.239 76.7274 357.454 76.3111C357.669 75.8948 358.181 75.7316 358.597 75.9465C360.664 77.0142 362.319 76.9154 363.63 76.1373C363.844 76.0106 364.027 75.8759 364.179 75.7436L364.249 75.6809L364.327 75.6035C364.636 75.2513 365.172 75.2164 365.524 75.5254Z" fill="#121212"/>
<path fill-rule="evenodd" clip-rule="evenodd" d="M395.84 66.3788L375.624 56.1705C373.278 63.4945 370.337 78.1708 382.862 82.0449C382.862 82.0449 392.645 85.2969 395.472 82.0732C395.472 82.0732 388.743 77.1528 390.27 73.109C390.27 73.109 397.14 83.2891 405.226 77.888C405.198 77.888 395.67 74.834 395.84 66.3788Z" fill="#121212"/>
<path fill-rule="evenodd" clip-rule="evenodd" d="M447.718 178.784C448.187 178.784 448.566 179.164 448.566 179.632C448.566 180.084 448.213 180.454 447.768 180.479L447.718 180.481H1.11382C0.645376 180.481 0.265625 180.101 0.265625 179.632C0.265625 179.181 0.618735 178.811 1.06398 178.785L1.11382 178.784H447.718Z" fill="#121212"/>
</svg>
