<svg width="54" height="54" viewBox="0 0 54 54" fill="none" xmlns="http://www.w3.org/2000/svg">
<path d="M53.9977 27.1664C53.9977 12.1615 41.9102 0 26.9989 0C12.0875 0 0 12.1615 0 27.1664C0 40.7224 9.87341 51.9603 22.7799 53.9977V35.0175H15.9262V27.1641H22.7799V21.1807C22.7799 14.371 26.8121 10.6107 32.9774 10.6107C35.9317 10.6107 39.0211 11.1405 39.0211 11.1405V17.8257H35.619C32.2663 17.8257 31.22 19.9198 31.22 22.0682V27.1664H38.7084L37.5113 35.0197H31.22V54C44.1266 51.9625 54 40.7247 54 27.1664H53.9977Z" fill="white"/>
</svg>
