<svg width="454" height="263" viewBox="0 0 454 263" fill="none" xmlns="http://www.w3.org/2000/svg">
<path fill-rule="evenodd" clip-rule="evenodd" d="M169.907 173.371C166.358 171.484 163.327 172.372 160 175.925C161.515 167.34 161.478 156.941 154.676 155.202C147.689 153.388 143.734 157.755 139.631 168.302C139.779 159.272 138.004 147.616 130.537 147.134C122.145 146.616 119.336 153.536 117.265 168.894C114.641 160.308 107.432 145.247 98.9297 148.245C90.6121 151.168 91.1666 159.198 95.7875 175.555C91.2406 168.487 82.1097 157.977 76.0101 161.974C70.2062 165.748 71.7958 171.928 78.2281 183.4C73.9769 181.55 69.5778 181.365 66.0289 184.843C58.081 192.688 61.9256 200.127 72.9048 213.93C83.9211 227.733 162.994 203.309 166.728 197.092C170.498 190.838 176.376 176.85 169.907 173.371Z" fill="#FAF8F5"/>
<path fill-rule="evenodd" clip-rule="evenodd" d="M120.488 151.645C118.961 154.424 117.849 158.273 116.893 163.896L116.826 164.291L116.818 164.269C115.294 160.392 113.332 156.562 111.199 153.579C107.316 148.151 103.019 145.624 98.5569 147.198C94.0818 148.77 91.8113 151.798 91.4102 156.602L91.3863 156.924C91.1771 160.11 91.7165 164.079 93.0816 169.693L93.1562 169.999L93.0609 169.88C91.1788 167.539 89.1608 165.407 87.1861 163.762C82.7824 160.092 78.7107 158.874 75.3982 161.045C72.1617 163.15 70.8888 166.046 71.4275 169.952L71.4485 170.099C71.8715 172.953 73.2267 176.402 75.7105 181.108L75.8714 181.412L75.7783 181.388C71.7869 180.397 68.1795 181.177 65.2486 184.05C61.0484 188.196 59.8206 192.423 61.3007 197.465L61.382 197.735C62.7072 202.014 65.8413 206.837 72.0328 214.621C77.3657 221.303 96.5903 220.353 122.8 214.098C144.297 208.968 165.518 201.254 167.674 197.664C169.981 193.838 172.194 188.768 173.231 184.451C174.631 178.62 173.947 174.286 170.427 172.393L170.291 172.322C167.268 170.764 164.489 170.977 161.705 172.931L161.55 173.041L161.573 172.857C162.02 169.128 162.041 165.685 161.545 162.807C160.744 158.154 158.605 155.061 154.946 154.126L154.726 154.07C148.64 152.579 144.541 155.265 140.742 162.955L140.609 163.226L140.605 163.161C140.371 159.825 139.841 156.739 138.988 154.163C137.359 149.244 134.597 146.284 130.603 146.027C126.02 145.744 122.798 147.525 120.559 151.517L120.488 151.645ZM130.465 148.243C135.982 148.598 138.706 156.824 138.518 168.284C138.498 169.522 140.211 169.858 140.66 168.705C144.806 158.048 148.421 154.726 154.394 156.276C159.459 157.571 160.768 165.173 158.904 175.732C158.712 176.819 160.051 177.49 160.805 176.684L161.049 176.428C164 173.382 166.45 172.792 169.383 174.352C171.736 175.617 172.266 178.974 171.075 183.931C170.096 188.009 167.972 192.873 165.774 196.518C165.061 197.706 159.647 200.34 151.66 203.243C143.182 206.325 132.599 209.477 122.286 211.939C97.1225 217.944 78.2679 218.876 73.7675 213.237L73.0231 212.296C67.3759 205.125 64.5498 200.656 63.4295 196.839C62.1872 192.607 63.1712 189.219 66.8038 185.634C69.7025 182.793 73.4028 182.512 77.7822 184.418C78.7566 184.842 79.7115 183.784 79.1915 182.857C72.5325 170.981 71.846 166.003 76.6105 162.905C80.9308 160.074 88.637 166.496 94.8514 176.156C95.5413 177.228 97.1977 176.48 96.851 175.253C91.9268 157.823 92.3734 151.724 99.2934 149.292C102.584 148.132 106.021 150.154 109.396 154.872C112.167 158.746 114.672 164.217 116.201 169.219C116.549 170.358 118.202 170.223 118.361 169.042C120.529 152.954 123.415 147.807 130.465 148.243Z" fill="#289976"/>
<path fill-rule="evenodd" clip-rule="evenodd" d="M170.534 196.796L170.608 196.574L64.253 196.907L64.327 197.129C58.671 198.239 54.6416 203.642 55.5657 209.6L63.5137 260.964L171.31 260.631L179.258 209.267C180.219 203.346 176.19 197.906 170.534 196.796Z" fill="#F2994A"/>
<path fill-rule="evenodd" clip-rule="evenodd" d="M344.721 178.293C343.058 178.293 341.394 178.404 339.767 178.589C330.932 166.377 320.803 156.016 310.157 149.429C282.431 132.332 244.355 137.217 208.83 150.391C184.394 159.42 153.453 188.581 133.601 209.23C107.724 211.191 87.8359 228.806 89.0189 248.974C89.2777 253.378 90.5346 257.522 92.5677 261.334L179.404 261.926C179.552 261.704 179.699 261.445 179.847 261.223L308.641 260.779C308.789 260.964 308.937 261.149 309.085 261.371L380.394 261.26C387.012 252.49 390.967 241.277 390.967 229.028C390.967 200.978 370.265 178.293 344.721 178.293Z" fill="#474747"/>
<path fill-rule="evenodd" clip-rule="evenodd" d="M312.71 151.094C279.92 171.447 250.494 171.891 231.419 168.598C213.749 165.563 200.995 158.754 196.855 156.09C196.153 156.497 195.45 156.904 194.711 157.311C198.112 159.643 211.42 167.34 230.643 170.707C236.927 171.817 243.249 172.372 249.607 172.372C256.077 172.372 262.546 171.817 268.978 170.67C284.541 167.895 299.883 161.789 314.67 152.5C314.004 151.982 313.376 151.538 312.71 151.094Z" fill="#FAF8F5"/>
<path fill-rule="evenodd" clip-rule="evenodd" d="M309.308 186.065C314.52 178.737 320.953 174.63 328.457 173.816C331.932 173.446 334.852 173.927 336.59 174.334C335.887 173.446 335.185 172.557 334.483 171.706C332.782 171.484 330.675 171.373 328.346 171.632C322.69 172.224 314.483 174.963 307.496 184.806C307.127 185.287 307.275 185.991 307.755 186.361C307.94 186.509 308.162 186.583 308.384 186.583C308.753 186.546 309.086 186.398 309.308 186.065Z" fill="#FAF8F5"/>
<path fill-rule="evenodd" clip-rule="evenodd" d="M309.714 212.08C310.343 212.08 310.824 211.599 310.86 211.006C310.934 207.75 312.228 200.349 316.775 193.392C322.025 185.288 329.788 180.329 339.769 178.553C339.288 177.886 338.808 177.22 338.29 176.554C328.309 178.59 320.25 183.955 314.89 192.171C310.417 199.054 308.716 206.603 308.605 210.932C308.605 211.562 309.086 212.08 309.714 212.08Z" fill="#FAF8F5"/>
<path fill-rule="evenodd" clip-rule="evenodd" d="M153.084 201.163C148.389 200.978 143.879 201.422 140.552 202.125C139.443 203.235 138.334 204.345 137.262 205.456C141.365 203.198 164.728 200.386 174.377 211.376C174.599 211.636 174.894 211.747 175.227 211.747C175.486 211.747 175.745 211.673 175.966 211.488C176.41 211.08 176.484 210.377 176.077 209.933C169.83 202.791 158.998 201.385 153.084 201.163Z" fill="#FAF8F5"/>
<path fill-rule="evenodd" clip-rule="evenodd" d="M132.863 209.304C132.863 209.304 132.9 209.304 132.937 209.304C132.9 209.267 132.863 209.304 132.863 209.304C132.863 209.304 132.826 209.304 132.863 209.304Z" fill="#FAF8F5"/>
<path fill-rule="evenodd" clip-rule="evenodd" d="M172.084 217.038C159.035 207.158 142.769 206.566 135.894 206.862C135.117 207.676 134.341 208.453 133.602 209.23C137.557 208.897 156.447 208.009 170.754 218.814C170.938 218.962 171.197 219.036 171.419 219.036C171.752 219.036 172.084 218.888 172.306 218.592C172.676 218.111 172.565 217.408 172.084 217.038Z" fill="#FAF8F5"/>
<path fill-rule="evenodd" clip-rule="evenodd" d="M115.711 261.001C115.711 261.001 127.836 225.105 161.957 231.618C196.078 238.131 242.767 252.12 242.767 252.12V261.112L115.711 261.001Z" fill="#FAF8F5"/>
<path fill-rule="evenodd" clip-rule="evenodd" d="M138.412 233.096C132.612 235.805 127.641 239.981 123.441 245.22C120.742 248.588 118.521 252.191 116.747 255.796C116.125 257.058 115.603 258.232 115.176 259.288L114.995 259.743C114.939 259.887 114.887 260.024 114.839 260.152L114.696 260.545C114.681 260.586 114.67 260.62 114.661 260.645C114.418 261.365 114.952 262.11 115.71 262.111L242.767 262.222C243.38 262.223 243.877 261.726 243.877 261.112V252.12C243.877 251.629 243.555 251.197 243.086 251.056L241.61 250.618L239.617 250.033C236.836 249.22 233.691 248.314 230.247 247.338C220.407 244.551 210.138 241.763 199.952 239.161C194.833 237.853 189.855 236.624 185.055 235.487L183.708 235.169C175.885 233.33 168.665 231.769 162.165 230.528C153.322 228.84 145.41 229.827 138.412 233.096ZM161.75 232.709C168.586 234.014 176.232 235.677 184.545 237.647C189.331 238.781 194.297 240.008 199.405 241.313C209.035 243.773 218.742 246.4 228.089 249.035L229.644 249.474C232.769 250.36 235.647 251.188 238.23 251.94L241.66 252.947V260.001L117.326 259.892L117.427 259.648C117.796 258.766 118.232 257.803 118.737 256.777C120.444 253.31 122.581 249.842 125.172 246.61C129.172 241.62 133.884 237.662 139.351 235.108C145.926 232.036 153.365 231.108 161.75 232.709Z" fill="#121212"/>
<path fill-rule="evenodd" clip-rule="evenodd" d="M385.126 128.41C385.126 128.41 382.391 127.04 382.058 123.895C381.725 120.749 383.832 107.057 387.233 105.133C390.671 103.209 406.308 94.7345 409.192 94.9195C412.075 95.1045 413.258 120.231 385.126 128.41Z" fill="#FAF8F5"/>
<path fill-rule="evenodd" clip-rule="evenodd" d="M386.789 106.65C392.63 86.1863 397.399 81.5976 400.171 83.5959C402.685 85.4091 397.583 98.4351 396.105 105.207" fill="#FAF8F5"/>
<path fill-rule="evenodd" clip-rule="evenodd" d="M393.704 86.0898L393.883 85.8214C396.247 82.3451 398.702 81.1689 400.819 82.6951C402.068 83.5955 402.202 85.4564 401.703 88.4147L401.63 88.8319C401.296 90.6619 400.746 92.7989 399.848 95.9063L398.381 100.921C397.694 103.289 397.465 104.177 397.188 105.444C397.057 106.043 396.466 106.423 395.868 106.292C395.27 106.161 394.89 105.569 395.021 104.97L395.126 104.498C395.364 103.446 395.608 102.523 396.168 100.587L397.647 95.5348C398.635 92.129 399.202 89.9079 399.516 88.0449L399.562 87.7637C399.862 85.8323 399.767 84.673 399.523 84.4967C398.673 83.8837 397.377 84.5382 395.557 87.3094L395.393 87.564C393.057 91.2362 390.505 97.6717 387.855 106.955C387.687 107.545 387.073 107.886 386.484 107.718C385.895 107.549 385.554 106.935 385.723 106.345L385.913 105.681C388.614 96.339 391.233 89.8526 393.704 86.0898Z" fill="#121212"/>
<path fill-rule="evenodd" clip-rule="evenodd" d="M412.556 102.21C415.477 97.4359 420.32 97.695 417.806 105.799C415.329 113.718 413.518 124.006 408.897 128.669C404.276 133.331 402.612 135.404 402.612 135.404C402.612 135.404 393.37 169.93 388.121 198.646C380.543 240.167 366.2 248.16 352.817 243.386C339.435 238.65 336.958 219.851 355.22 183.4C373.482 146.912 383.131 125.671 383.131 125.671" fill="#FAF8F5"/>
<path fill-rule="evenodd" clip-rule="evenodd" d="M411.61 101.63C413.268 98.9201 415.679 97.4001 417.614 98.1378C419.743 98.9499 420.158 101.846 418.915 105.965L418.646 106.838C418.326 107.894 417.996 109.051 417.561 110.63L416.758 113.551C414.407 122.036 412.668 126.384 409.778 129.354L409.052 130.091C407.541 131.627 406.282 132.954 405.253 134.08L404.844 134.529C404.416 135.003 404.066 135.402 403.787 135.729L403.621 135.924L403.037 138.143L402.513 140.158C402.004 142.122 401.454 144.274 400.871 146.586C398.76 154.955 396.65 163.71 394.68 172.423L394.254 174.316C393.341 178.399 392.481 182.376 391.684 186.222L391.364 187.776C390.679 191.124 390.047 194.347 389.473 197.432L389.212 198.846C385.596 218.654 380.271 231.895 373.453 239.138C367.353 245.617 360.153 247.181 352.447 244.433C345.043 241.812 341.052 235.27 341.043 225.287C341.033 214.895 345.291 200.855 353.964 183.432L355.669 180.021C362.576 166.182 368.675 153.679 373.944 142.639L375.993 138.33C377.259 135.66 378.407 133.219 379.437 131.013L381.057 127.527L382.121 125.212C382.374 124.654 383.032 124.407 383.589 124.661C384.127 124.905 384.375 125.526 384.165 126.071L384.026 126.38L382.874 128.884L381.291 132.286C380.091 134.854 378.734 137.733 377.223 140.914L375.672 144.169C370.094 155.845 363.599 169.137 356.211 183.898C339.437 217.379 339.456 237.479 353.189 242.34C360.086 244.8 366.356 243.438 371.838 237.615C378.244 230.812 383.381 218.129 386.923 199.027L387.03 198.447C387.761 194.45 388.591 190.215 389.512 185.771C390.435 181.32 391.441 176.694 392.517 171.933C394.381 163.686 396.371 155.403 398.368 147.444L399.18 144.224C399.558 142.738 399.92 141.326 400.263 139.997L400.952 137.347L401.541 135.116C401.581 134.967 401.651 134.828 401.748 134.708L401.9 134.524L402.101 134.286C402.393 133.944 402.757 133.53 403.198 133.041L403.759 132.425C404.924 131.155 406.366 129.646 408.109 127.887L408.278 127.713C410.646 125.222 412.252 121.336 414.324 114.014L415.653 109.207C416.022 107.885 416.317 106.864 416.613 105.901L416.746 105.47C417.745 102.25 417.507 100.473 416.824 100.213C416.141 99.9524 414.67 100.88 413.502 102.789C413.182 103.312 412.499 103.477 411.977 103.156C411.455 102.836 411.291 102.153 411.61 101.63Z" fill="#121212"/>
<path fill-rule="evenodd" clip-rule="evenodd" d="M383.464 126.3C380.803 124.487 381.135 114.051 378.141 109.5C374.444 103.838 370.822 97.954 377.661 98.8421C383.538 99.5822 385.387 104.763 386.755 106.613" fill="#FAF8F5"/>
<path fill-rule="evenodd" clip-rule="evenodd" d="M372.869 101.982C372.1 98.8832 373.905 97.2355 377.795 97.7406C381.059 98.1516 383.423 99.7684 385.338 102.349L385.427 102.472C386.126 103.451 387.457 105.683 387.632 105.939L387.642 105.953C388.006 106.446 387.902 107.141 387.41 107.506C386.917 107.87 386.223 107.766 385.859 107.274L385.821 107.22C385.505 106.752 384.122 104.435 383.557 103.673C381.976 101.542 380.118 100.271 377.513 99.943C376.154 99.7664 375.364 99.8918 375.073 100.157C374.902 100.313 374.844 100.677 374.999 101.353L375.022 101.447C375.406 102.997 376.518 104.982 378.939 108.699L379.063 108.889C380.195 110.61 380.892 112.888 381.604 116.53L381.747 117.282L382.181 119.63C382.857 123.213 383.385 124.863 384.05 125.358L384.084 125.382C384.59 125.727 384.721 126.418 384.377 126.925C384.032 127.432 383.342 127.563 382.836 127.218C381.449 126.273 380.853 124.526 380.043 120.261L379.543 117.562L379.471 117.184C378.812 113.759 378.183 111.638 377.268 110.2L376.581 109.141C374.348 105.674 373.307 103.747 372.869 101.982Z" fill="#121212"/>
<path fill-rule="evenodd" clip-rule="evenodd" d="M409.156 110.869C409.156 110.869 414.368 98.213 416.106 92.3291C418.028 85.9271 411.3 85.002 408.047 94.2164" fill="#FAF8F5"/>
<path fill-rule="evenodd" clip-rule="evenodd" d="M413.945 86.3088C416.829 86.1212 418.233 88.932 417.205 92.5225L417.169 92.6438C416.638 94.4424 415.767 96.9412 414.631 99.9778L414.428 100.519C414.271 100.936 414.11 101.361 413.945 101.793C413.224 103.681 412.459 105.634 411.688 107.564L411.057 109.138L410.402 110.753L410.181 111.292C409.948 111.859 409.299 112.129 408.733 111.895C408.187 111.67 407.917 111.058 408.107 110.507L409 108.307C409.097 108.066 409.197 107.818 409.3 107.563C410.067 105.649 410.835 103.702 411.563 101.809L412.035 100.574L412.352 99.7361C413.537 96.5911 414.447 94.002 414.997 92.1652L415.044 92.0096C415.752 89.6514 415.168 88.4543 414.089 88.5245C412.492 88.6284 410.435 90.7842 409.092 94.5863C408.888 95.1644 408.255 95.4675 407.677 95.2631C407.1 95.0588 406.797 94.4246 407.001 93.8465C408.608 89.2959 411.293 86.4813 413.945 86.3088Z" fill="#121212"/>
<path fill-rule="evenodd" clip-rule="evenodd" d="M403.016 107.538C403.016 107.538 413.256 84.3359 408.672 82.2636C404.495 80.3763 401.316 88.8506 396.066 105.207" fill="#FAF8F5"/>
<path fill-rule="evenodd" clip-rule="evenodd" d="M401.941 86.087C404.166 81.7824 406.425 80.0286 409.133 81.2518C411.917 82.5105 411.389 87.3158 408.899 95.1633C408.476 96.4961 408 97.8875 407.481 99.3212C406.811 101.172 406.099 103.012 405.383 104.776L405.114 105.434C404.863 106.045 404.628 106.606 404.413 107.11L404.035 107.987C403.787 108.548 403.132 108.802 402.572 108.554C402.012 108.306 401.758 107.651 402.006 107.09L402.294 106.422L402.535 105.857C402.701 105.464 402.877 105.04 403.063 104.589C403.858 102.655 404.654 100.615 405.396 98.5649C405.905 97.1577 406.371 95.794 406.785 94.4912L406.966 93.9124C408.832 87.8633 409.252 83.742 408.22 83.2755C406.936 82.6956 405.569 83.8048 403.766 87.3927L403.559 87.8114C401.9 91.2244 400.124 96.2065 397.126 105.547C396.939 106.13 396.314 106.452 395.731 106.264C395.148 106.077 394.827 105.451 395.014 104.868L395.659 102.869C398.399 94.4121 400.082 89.8106 401.731 86.5025L401.941 86.087Z" fill="#121212"/>
<path fill-rule="evenodd" clip-rule="evenodd" d="M235.668 124.413L237.11 150.576C237.11 150.576 234.67 164.712 254.262 162.085C273.781 159.494 271.378 147.912 271.378 147.912L265.353 115.421L235.668 124.413Z" fill="#FAF8F5"/>
<path fill-rule="evenodd" clip-rule="evenodd" d="M265.031 114.358L235.346 123.35C234.857 123.499 234.532 123.963 234.56 124.474L235.996 150.522L235.981 150.641C235.973 150.706 235.965 150.779 235.957 150.86C235.775 152.74 235.986 154.883 236.908 156.946C239.16 161.986 244.77 164.478 254.409 163.185C262.277 162.141 267.395 159.587 270.202 155.929C272.242 153.271 272.796 150.476 272.527 148.105L272.508 147.955C272.496 147.863 272.483 147.786 272.472 147.727L266.443 115.218C266.322 114.568 265.664 114.166 265.031 114.358ZM236.823 125.223L264.488 116.842L270.298 148.171C270.305 148.216 270.314 148.276 270.323 148.356C270.533 150.201 270.091 152.43 268.443 154.577C266.028 157.725 261.444 160.012 254.116 160.984C245.379 162.156 240.746 160.098 238.933 156.04C238.192 154.381 238.017 152.604 238.165 151.074L238.181 150.918C238.19 150.844 238.197 150.792 238.202 150.765L238.213 150.682C238.219 150.627 238.22 150.571 238.217 150.515L236.823 125.223Z" fill="#121212"/>
<path fill-rule="evenodd" clip-rule="evenodd" d="M272.855 82.4116C272.855 82.4116 288.012 76.7127 288.604 92.5142C289.195 108.316 272.855 104.208 272.855 104.208" fill="#FAF8F5"/>
<path fill-rule="evenodd" clip-rule="evenodd" d="M274.323 80.8308C276.513 80.3127 278.772 80.127 280.917 80.4769C286.141 81.3291 289.438 85.1549 289.712 92.4726C289.995 100.039 286.63 104.181 280.974 105.42C278.672 105.924 276.248 105.895 273.956 105.546L273.598 105.488C273.147 105.412 272.803 105.339 272.585 105.285C271.991 105.135 271.631 104.532 271.78 103.938C271.924 103.364 272.489 103.008 273.062 103.117L273.303 103.172L273.417 103.196C273.671 103.248 273.964 103.301 274.29 103.351C276.335 103.662 278.502 103.688 280.5 103.251C285.128 102.237 287.737 99.0254 287.495 92.5557L287.478 92.1797C287.158 86.1661 284.647 83.335 280.56 82.6683C278.745 82.3722 276.763 82.5351 274.833 82.9916C274.46 83.08 274.115 83.1736 273.805 83.2675L273.652 83.3144C273.539 83.35 273.446 83.3807 273.375 83.405L273.245 83.4509C272.672 83.6665 272.033 83.3759 271.817 82.802C271.602 82.228 271.892 81.5879 272.465 81.3723L272.609 81.3202C272.993 81.1842 273.58 81.0067 274.323 80.8308Z" fill="#121212"/>
<path fill-rule="evenodd" clip-rule="evenodd" d="M244.429 132.369C228.015 132.369 214.707 119.047 214.707 102.617V76.6387C214.707 66.1291 223.246 57.5808 233.745 57.5808H259.77C267.718 57.5808 274.187 64.0568 274.187 72.013V102.58C274.187 119.01 260.879 132.369 244.429 132.369Z" fill="#FAF8F5"/>
<path fill-rule="evenodd" clip-rule="evenodd" d="M259.77 56.4706H233.745C222.634 56.4706 213.598 65.5159 213.598 76.6387V102.617C213.598 119.66 227.402 133.479 244.428 133.479L244.93 133.475C261.774 133.202 275.296 119.445 275.296 102.58V72.013C275.296 63.4436 268.33 56.4706 259.77 56.4706ZM233.745 58.6909H259.77C267.105 58.6909 273.078 64.6699 273.078 72.013V102.58C273.078 118.233 260.527 131.001 244.903 131.255L244.419 131.259C228.627 131.259 215.816 118.434 215.816 102.617V76.6387C215.816 66.7422 223.859 58.6909 233.745 58.6909Z" fill="#121212"/>
<path fill-rule="evenodd" clip-rule="evenodd" d="M281.1 116.679C281.063 106.576 279.658 99.2122 279.288 97.3619C279.288 97.2509 279.325 97.1029 279.325 96.9918C279.325 94.6605 277.44 92.7732 275.111 92.7732V96.9918L275.222 101.21C276.109 101.173 276.922 100.877 277.588 100.396C278.956 108.908 281.654 134.294 270.268 155.868C268.198 159.827 266.239 163.491 264.317 167.007C253.596 187.027 246.498 200.275 246.683 212.079C246.683 212.671 247.201 213.19 247.792 213.19C248.421 213.19 248.901 212.671 248.901 212.079C248.753 200.83 255.74 187.804 266.276 168.08C268.161 164.527 270.12 160.901 272.228 156.904C279.658 142.805 281.174 127.262 281.1 116.679Z" fill="#289976"/>
<path fill-rule="evenodd" clip-rule="evenodd" d="M211.821 101.692C212.339 101.988 212.893 102.173 213.522 102.21V93.8093C211.563 93.9944 210.01 95.4746 209.751 97.3989C209.64 97.5839 209.566 97.8059 209.566 98.028C209.566 99.7302 209.566 139.585 221.396 157.57C233.484 175.999 237.218 186.508 238.068 204.345C238.105 204.937 238.586 205.418 239.177 205.418H239.214C239.843 205.381 240.286 204.863 240.286 204.271C239.436 185.916 235.628 175.185 223.244 156.349C213.781 141.991 212.117 112.09 211.821 101.692Z" fill="#289976"/>
<path fill-rule="evenodd" clip-rule="evenodd" d="M235.317 83.6329C235.907 83.6228 236.398 84.0767 236.441 84.6588L236.444 84.724L236.843 108.217L236.86 108.223C236.941 108.249 237.03 108.244 237.152 108.199L237.206 108.177C237.776 107.933 238.527 107.107 239.39 105.526C239.683 104.988 240.357 104.79 240.895 105.084C241.432 105.378 241.63 106.052 241.336 106.59C239.31 110.304 237.13 111.238 235.389 109.921C235.13 109.725 234.948 109.524 234.832 109.357C234.722 109.198 234.655 109.015 234.638 108.824L234.633 108.741L234.227 84.7617C234.216 84.1487 234.704 83.6433 235.317 83.6329Z" fill="#121212"/>
<path fill-rule="evenodd" clip-rule="evenodd" d="M247.001 111.716C247.62 111.311 248.454 111.614 248.67 112.322L248.695 112.413C248.723 112.516 248.753 112.651 248.781 112.815C249.01 114.116 248.886 115.555 248.143 116.933C246.904 119.229 244.228 120.726 239.917 121.151C239.308 121.211 238.765 120.765 238.705 120.155C238.645 119.545 239.09 119.002 239.7 118.942C243.33 118.584 245.337 117.461 246.191 115.878C246.401 115.488 246.534 115.083 246.604 114.68L246.628 114.523L246.594 114.541C241.774 117.14 236.958 117.314 234.571 114.641L234.492 114.55C234.094 114.083 234.15 113.383 234.616 112.985C235.082 112.587 235.782 112.642 236.179 113.109C237.895 115.123 242.436 114.707 247.001 111.716Z" fill="#121212"/>
<path fill-rule="evenodd" clip-rule="evenodd" d="M245.413 74.9717C247.833 73.1293 250.706 72.9325 253.805 75.3999C254.284 75.7816 254.364 76.48 253.982 76.9598C253.601 77.4397 252.903 77.5192 252.424 77.1375C250.182 75.3521 248.419 75.4729 246.756 76.739C246.531 76.9102 246.33 77.0855 246.114 77.2937L245.707 77.6965C245.65 77.7516 245.601 77.7957 245.549 77.8379C245.406 77.9539 245.281 78.0319 245.066 78.0858C244.472 78.2346 243.869 77.8729 243.721 77.2781C243.609 76.832 243.785 76.3814 244.13 76.1212L244.178 76.0866L244.421 75.8451C244.753 75.5158 245.055 75.2444 245.413 74.9717Z" fill="#121212"/>
<path fill-rule="evenodd" clip-rule="evenodd" d="M253.114 94.6605C254.135 94.6605 254.962 93.3848 254.962 91.8111C254.962 90.2374 254.135 88.9617 253.114 88.9617C252.093 88.9617 251.266 90.2374 251.266 91.8111C251.266 93.3848 252.093 94.6605 253.114 94.6605Z" fill="#121212"/>
<path fill-rule="evenodd" clip-rule="evenodd" d="M226.239 95.3637C227.26 95.3637 228.087 94.0879 228.087 92.5142C228.087 90.9405 227.26 89.6648 226.239 89.6648C225.218 89.6648 224.391 90.9405 224.391 92.5142C224.391 94.0879 225.218 95.3637 226.239 95.3637Z" fill="#121212"/>
<path fill-rule="evenodd" clip-rule="evenodd" d="M221.086 74.6213C223.854 72.4108 226.89 72.3067 229.556 75.7347C229.932 76.2185 229.845 76.916 229.362 77.2927C228.879 77.6693 228.182 77.5825 227.806 77.0987C226.006 74.7847 224.368 74.8408 222.469 76.3571C222.212 76.5622 221.98 76.7717 221.723 77.023L221.288 77.4583C221.229 77.5157 221.18 77.561 221.129 77.6033C220.978 77.7295 220.859 77.8069 220.632 77.8638C220.038 78.0125 219.436 77.6508 219.287 77.056C219.176 76.6099 219.351 76.1593 219.697 75.8992L219.739 75.8686L220.025 75.5822C220.389 75.2179 220.711 74.9208 221.086 74.6213Z" fill="#121212"/>
<path fill-rule="evenodd" clip-rule="evenodd" d="M251.858 51.1048C244.65 51.2158 239.179 51.5489 235.925 52.178C209.457 58.2099 213.745 77.8229 213.745 77.8229C213.745 77.8229 226.684 80.3023 237.219 64.6859C237.219 64.6859 251.673 76.4907 273.077 81.2644C273.41 81.1904 273.817 81.0794 274.187 80.9684V82.0415C275.443 81.7085 277.477 81.3384 279.584 81.4864C279.362 73.7523 277.957 63.9828 271.599 57.6918C267.089 53.2141 260.435 50.9938 251.858 51.1048Z" fill="#121212"/>
<path fill-rule="evenodd" clip-rule="evenodd" d="M236.511 49.7832C240.729 49.1968 247.368 48.8115 253.089 48.8475C264.515 48.9687 272.151 53.183 276.676 60.6157C278.458 63.5419 279.7 66.8722 280.537 70.6085C281.155 73.3667 281.486 75.8941 281.797 79.4658C281.85 80.0766 281.398 80.6149 280.788 80.6681C280.178 80.7214 279.64 80.2693 279.587 79.6585L279.527 78.9944C278.838 71.5386 277.656 66.491 274.782 61.7713C270.661 55.0023 263.737 51.1809 253.07 51.0678L252.419 51.0655C246.957 51.0619 240.764 51.4336 236.816 51.9824C236.21 52.0668 235.65 51.6428 235.565 51.0355C235.481 50.4282 235.905 49.8675 236.511 49.7832Z" fill="#FAF8F5"/>
<path fill-rule="evenodd" clip-rule="evenodd" d="M321.321 35.0074C312.19 8.88137 286.313 -5.80987 263.504 2.18335C244.762 8.73335 233.93 28.6054 235.705 49.9576C239.143 49.3656 244.54 48.9955 251.859 48.8845C261.064 48.7735 268.236 51.1788 273.189 56.1006C280.213 63.0576 281.655 73.6043 281.84 81.8195C285.241 82.7447 288.383 85.5201 288.642 92.5141C288.679 93.2172 288.05 98.6571 288.198 98.6201C288.198 100.359 288.568 102.543 289.862 104.689C292.412 108.797 297.588 111.35 305.277 112.238C305.314 112.238 305.351 112.238 305.425 112.238C305.979 112.238 306.46 111.831 306.534 111.276C306.608 110.684 306.164 110.129 305.573 110.055C298.623 109.241 293.965 107.057 291.784 103.542C290.897 102.136 290.564 100.692 290.453 99.4342C292.338 101.655 295.628 104.06 300.841 104.06C302.098 104.06 303.465 103.912 304.944 103.616C305.536 103.505 305.942 102.913 305.794 102.321C305.684 101.729 305.092 101.321 304.501 101.47C297.773 102.876 294.039 100.322 292.08 98.028C293.595 97.6949 295.074 97.2879 296.553 96.7698C319.324 88.7396 330.415 61.0963 321.321 35.0074Z" fill="#121212"/>
<path fill-rule="evenodd" clip-rule="evenodd" d="M254.705 77.86C246.621 77.86 240.066 84.4209 240.066 92.5142C240.066 100.608 246.621 107.168 254.705 107.168C262.79 107.168 269.344 100.608 269.344 92.5142C269.344 84.4209 262.79 77.86 254.705 77.86ZM254.705 80.0803C261.565 80.0803 267.126 85.6472 267.126 92.5142C267.126 99.3813 261.565 104.948 254.705 104.948C247.846 104.948 242.284 99.3813 242.284 92.5142C242.284 85.6472 247.846 80.0803 254.705 80.0803Z" fill="#121212"/>
<path fill-rule="evenodd" clip-rule="evenodd" d="M240.88 91.071C241.492 91.071 241.989 91.5681 241.989 92.1812C241.989 92.7724 241.527 93.2557 240.945 93.2895L240.88 93.2914H232.082C231.469 93.2914 230.973 92.7943 230.973 92.1812C230.973 91.59 231.434 91.1067 232.017 91.0729L232.082 91.071H240.88Z" fill="#121212"/>
<path fill-rule="evenodd" clip-rule="evenodd" d="M273.642 80.6681C274.175 80.3664 274.851 80.5545 275.153 81.0883C275.443 81.6023 275.279 82.2493 274.791 82.566L274.733 82.601L267.081 86.9307C266.547 87.2324 265.871 87.0442 265.57 86.5105C265.279 85.9965 265.443 85.3494 265.931 85.0328L265.989 84.9977L273.642 80.6681Z" fill="#121212"/>
<path fill-rule="evenodd" clip-rule="evenodd" d="M218.108 77.86C210.023 77.86 203.469 84.4209 203.469 92.5142C203.469 100.608 210.023 107.168 218.108 107.168C226.193 107.168 232.747 100.608 232.747 92.5142C232.747 84.4209 226.193 77.86 218.108 77.86ZM218.108 80.0803C224.968 80.0803 230.529 85.6472 230.529 92.5142C230.529 99.3813 224.968 104.948 218.108 104.948C211.248 104.948 205.687 99.3813 205.687 92.5142C205.687 85.6472 211.248 80.0803 218.108 80.0803Z" fill="#121212"/>
<path fill-rule="evenodd" clip-rule="evenodd" d="M311.156 247.124H303.467L299.696 191.134C299.437 187.212 296.036 184.029 292.118 184.029H184.95C181.031 184.029 178.037 187.212 178.333 191.134L182.51 253.119C182.769 257.041 186.17 260.224 190.088 260.224L311.119 260.076C313.337 260.076 315.111 258.262 315.111 256.079V251.157C315.148 248.937 313.374 247.124 311.156 247.124Z" fill="#289976"/>
<path fill-rule="evenodd" clip-rule="evenodd" d="M246.092 221.072C244.576 219.443 242.543 218.407 240.399 218C240.732 217.519 240.954 216.927 241.027 216.298C241.212 214.3 239.771 212.449 237.848 212.153C237.811 212.153 237.774 212.153 237.737 212.153C237.331 210.636 236.554 208.12 235.667 207.046C235.334 206.639 234.706 206.491 234.262 206.75C233.856 207.009 233.782 207.528 234.115 207.935C234.706 208.638 235.408 210.821 235.852 212.486C234.854 213.004 234.152 214.004 234.041 215.262C233.93 216.409 234.373 217.482 235.076 218.259C234.41 218.481 233.782 218.74 233.19 219.11C229.346 221.516 228.865 226.252 232.118 229.768C235.371 233.247 241.175 234.135 245.02 231.729C248.901 229.324 249.382 224.55 246.092 221.072Z" fill="#FAF8F5"/>
<path fill-rule="evenodd" clip-rule="evenodd" d="M244.468 206.861C244.468 206.861 238.923 205.751 238.184 210.377C238.221 210.377 242.583 211.931 244.468 206.861Z" fill="#FAF8F5"/>
<path fill-rule="evenodd" clip-rule="evenodd" d="M451.964 260.224C452.576 260.224 453.073 260.721 453.073 261.334C453.073 261.925 452.611 262.408 452.029 262.442L451.964 262.444H1.29652C0.684023 262.444 0.1875 261.947 0.1875 261.334C0.1875 260.743 0.649191 260.259 1.23135 260.226L1.29652 260.224H451.964Z" fill="#121212"/>
</svg>
